<svg width="114" height="117" viewBox="0 0 114 117" fill="none" xmlns="http://www.w3.org/2000/svg">
<g clip-path="url(#clip0_28_140)">
<path d="M41.6694 55.088C43.5768 56.4197 45.5359 57.6672 47.547 58.8095C48.0831 59.1053 48.6152 59.4152 49.158 59.6989C49.7018 59.98 50.247 60.2579 50.7935 60.5274C53.726 61.919 56.7235 63.1167 59.7672 64.1128C62.8075 65.0981 65.8839 65.8964 68.9801 66.5034C72.7881 67.2432 76.6166 67.6822 80.4327 67.8168C81.3866 67.8656 82.3358 67.8496 83.2869 67.8647C83.7616 67.8616 84.2351 67.8469 84.7092 67.8388L85.4201 67.8245L86.1284 67.7887L87.5444 67.7141L88.9537 67.5974C89.4246 67.5648 89.8911 67.5079 90.3581 67.4536C90.8244 67.3964 91.2938 67.3542 91.7575 67.2849C92.3171 67.2017 92.8838 67.1384 93.4519 67.0858C94.0167 67.0196 94.5811 66.9557 95.1415 66.8977C95.594 66.842 96.0551 66.836 96.5177 66.8797C96.8491 66.9137 97.1778 67.0086 97.4887 67.16C98.2592 67.551 97.8037 68.2438 96.3107 68.6952C95.84 68.8397 95.3327 68.9375 94.8218 69.0376C94.5658 69.0858 94.3079 69.1304 94.0507 69.1721C93.7921 69.2077 93.5333 69.2365 93.2782 69.2649C90.9315 69.5371 88.5765 69.7218 86.2131 69.819C83.8495 69.9178 81.4763 69.9299 79.0936 69.8553C78.4358 69.8245 77.7641 69.8086 77.0961 69.7623C76.4282 69.7055 75.764 69.6349 75.1236 69.5299C73.0791 69.1545 71.0349 68.8028 68.9951 68.3721C68.4852 68.2659 67.977 68.1424 67.4679 68.0286L66.7048 67.854L65.9449 67.6569C65.4387 67.5225 64.9313 67.3976 64.4277 67.2513L62.9204 66.7959C59.9335 65.8744 56.9822 64.782 54.0803 63.524C48.9237 61.249 43.9687 58.403 39.3055 55.0377C37.5734 53.8029 35.9685 52.3685 34.5248 50.7646C33.9171 50.1041 34.1044 49.9554 34.9611 50.4986L35.4164 50.7909C35.5679 50.8902 35.7156 50.9962 35.8659 51.0995C36.1627 51.3119 36.4749 51.5065 36.781 51.7126L37.704 52.3298C38.0062 52.545 38.3154 52.7504 38.6193 52.963C39.6148 53.668 40.6292 54.4037 41.6485 55.103L41.6694 55.088Z" fill="#7A7B75"/>
<path d="M86.257 79.6104C86.1495 80.3923 85.9842 81.1586 85.7626 81.9026C85.5336 82.6398 85.2486 83.3516 84.9101 84.0316C84.5431 84.7456 84.1264 85.4268 83.663 86.0702C82.6633 87.5071 81.3823 88.6932 79.8943 89.5597C78.399 90.4393 76.7208 90.9742 74.96 91.1323L74.9417 91.1339C74.703 91.154 74.457 91.0889 74.2427 90.9488C74.0284 90.8088 73.8579 90.6017 73.7582 90.3604C73.6022 89.9822 73.4429 89.6046 73.3197 89.2166L73.2217 88.9273L73.1392 88.6346C73.0876 88.4389 73.0235 88.2451 72.9847 88.0476C72.3198 85.2341 72.5619 82.3568 73.6718 79.8832L73.7742 79.6528L73.8899 79.4299C73.9684 79.2822 74.0422 79.1315 74.1253 78.9872C74.2988 78.7034 74.4657 78.4147 74.6627 78.1506C74.8466 77.8755 75.0593 77.6266 75.2649 77.3719C75.3713 77.2481 75.4844 77.1311 75.5942 77.0108L75.7604 76.8322L75.9363 76.6645C76.8683 75.7667 77.9471 75.0478 79.1312 74.5357C79.8463 74.2367 80.6085 74.0514 81.3945 73.9856C81.7065 73.9483 82.0281 73.9738 82.3425 74.0605C82.571 74.1269 82.7872 74.2454 82.9752 74.4071C83.0253 74.4416 83.0686 74.4866 83.1021 74.5389C83.1356 74.5912 83.1585 74.6495 83.1691 74.7097C83.1797 74.7699 83.1778 74.8306 83.1635 74.8875C83.1492 74.9444 83.1229 74.9961 83.0864 75.0389C82.9438 75.2374 82.6433 75.3972 82.2125 75.525C81.6685 75.6911 81.0736 75.8367 80.5193 76.0201C79.8785 76.2276 79.2694 76.514 78.7041 76.8739C78.1363 77.2301 77.6167 77.6592 77.1557 78.1524C76.2352 79.1219 75.5757 80.3363 75.2342 81.6906C75.0475 82.4311 74.9789 83.2275 74.8494 83.9553C74.6855 84.8786 74.6834 85.8412 74.8432 86.7977C75 87.7503 75.2819 88.6876 75.6808 89.5822L74.6082 88.8932C75.103 88.8434 75.5982 88.7907 76.0842 88.6906C77.7706 88.3752 79.314 87.5299 80.6174 86.4322C81.7913 85.4474 82.7328 84.1953 83.3817 82.7557C84.0357 81.2953 84.3871 79.6816 84.4148 78.0122C84.4202 77.338 84.4254 76.6832 84.4305 76.0551C84.439 75.8947 84.4311 75.7366 84.4366 75.5777C84.4401 75.4192 84.4587 75.2588 84.4589 75.1016C84.4606 74.7875 84.5081 74.4657 84.5056 74.1551C84.5132 73.8676 84.5763 73.712 84.6981 73.7004C84.8171 73.6897 85.0046 73.8213 85.2292 74.1218C85.3081 74.2283 85.3893 74.3364 85.463 74.4479C85.5237 74.5616 85.5777 74.6786 85.6247 74.7981C85.7289 75.0361 85.8191 75.2795 85.8945 75.5267C85.9742 75.7748 86.0285 76.0275 86.0852 76.2816C86.1464 76.5358 86.1832 76.7919 86.2213 77.0485C86.319 77.9043 86.3195 78.7596 86.2227 79.596C86.234 79.6008 86.2446 79.6052 86.257 79.6104Z" fill="#7A7B75"/>
<path d="M59.5432 74.2227C58.235 74.2293 56.9633 74.4956 55.794 75.0077C55.1546 75.2792 54.5525 75.6269 53.9983 76.0447C52.8108 76.9738 51.7734 78.0912 50.9179 79.3625C50.0511 80.6377 49.3262 82.0204 48.7558 83.487L47.7751 82.0404C48.1708 82.0408 48.5671 82.0517 48.9599 82.0433L50.1346 82.0131C50.4419 82.0041 50.7465 81.9931 51.0514 81.9763C51.3542 81.9544 51.6587 81.938 51.959 81.9104C52.5626 81.8638 53.158 81.796 53.7478 81.7157C54.3376 81.6354 54.9162 81.5271 55.4881 81.4049C56.0561 81.2732 56.6159 81.124 57.1592 80.9412C57.697 80.7624 58.2204 80.5472 58.7264 80.2969C58.854 80.2385 58.9774 80.1726 59.0989 80.1032C59.2208 80.0347 59.3452 79.9704 59.4652 79.899C59.7006 79.7492 59.9428 79.6097 60.166 79.4434C60.398 79.2889 60.6127 79.113 60.8301 78.9409C60.9401 78.8565 61.038 78.7582 61.1427 78.668C61.2453 78.5753 61.3522 78.4875 61.4477 78.3881C61.8447 78.0114 62.208 77.5976 62.534 77.151C62.9317 76.6255 63.296 76.0717 63.6248 75.4927C63.7556 75.2443 63.9217 75.0206 64.118 74.8283C64.2817 74.665 64.4747 74.5365 64.6878 74.4488C64.9888 74.3258 65.2585 74.3901 65.4354 74.6479C65.5367 74.8081 65.6014 74.9883 65.6241 75.1727C65.6442 75.2914 65.6496 75.4109 65.64 75.5281C65.6318 75.6655 65.6153 75.8013 65.5905 75.9348C65.4251 76.6796 65.1242 77.3714 64.7034 77.974C63.7763 79.3138 62.6108 80.4436 61.2624 81.3096C60.6049 81.7401 59.9157 82.1198 59.1998 82.4461C58.4865 82.7642 57.7523 83.0367 57.0009 83.2622C56.1863 83.5393 55.3339 83.71 54.4616 83.7707C53.3574 83.8099 52.268 83.8467 51.1834 83.8628L47.9558 83.9313C47.8128 83.9343 47.6681 83.8985 47.5353 83.8272C47.4025 83.7559 47.2862 83.6516 47.1974 83.5243C47.1085 83.3969 47.0502 83.2508 47.028 83.0997C47.0057 82.9487 47.0203 82.7979 47.0703 82.6617L47.0792 82.6383C47.1658 82.4061 47.2565 82.1761 47.3511 81.9482C47.4493 81.7224 47.554 81.5002 47.6619 81.2805C48.5604 79.4768 49.6305 77.758 51.0061 76.3115C52.2317 75.0053 53.6921 73.9643 55.318 73.2377C55.7283 73.0586 56.1495 72.9037 56.5799 72.7737C57.0127 72.6492 57.454 72.5507 57.9019 72.4787C58.7966 72.333 59.715 72.3018 60.6375 72.3858C61.3515 72.4421 62.0627 72.6276 62.7395 72.9342C63.0558 73.0818 63.3614 73.2581 63.6525 73.461C63.7925 73.5587 63.9277 73.6643 64.0575 73.7775C64.1861 73.8819 64.3096 73.9936 64.4273 74.1118C64.6404 74.3284 64.7077 74.4834 64.6404 74.5825C64.5893 74.641 64.5197 74.6784 64.4423 74.689C64.387 74.7009 64.3304 74.7082 64.2731 74.7108C64.2048 74.718 64.1347 74.7135 64.0656 74.6974C63.6485 74.6094 63.2315 74.5455 62.8215 74.4711L62.5133 74.4214L62.2038 74.386C62.0001 74.3514 61.7932 74.3375 61.5904 74.3072C60.9073 74.2147 60.2235 74.1749 59.5445 74.1883L59.5432 74.2227Z" fill="#7A7B75"/>
<path d="M38.9681 62.915C38.3724 62.7527 37.7698 62.6394 37.166 62.5762C36.5583 62.5152 35.952 62.513 35.3546 62.5695C35.1973 62.5892 35.0361 62.5973 34.8802 62.6256L34.411 62.709L33.9523 62.83C33.7988 62.8692 33.6541 62.9331 33.5062 62.9868C32.2478 63.4958 31.1214 64.2719 30.1918 65.2706C29.2701 66.2565 28.556 67.4394 28.0887 68.7542L27.0543 67.0259L29.2494 67.333C30.4108 67.4936 31.5686 67.668 32.7241 67.797C33.8771 67.9107 35.0474 68.036 36.1332 68.0688C37.1643 68.124 38.1815 68.0053 39.1461 67.7172C40.0686 67.3824 40.9056 66.8604 41.6132 66.1787C42.0719 65.7607 42.5788 65.3475 43.0753 64.9133C43.2625 64.732 43.488 64.5982 43.737 64.5207C43.986 64.4433 44.2528 64.4238 44.52 64.4636C45.2055 64.5783 45.4576 65.3144 44.9673 66.1512C44.6288 66.7024 44.2157 67.1952 43.7394 67.6159C43.1863 68.1251 42.5953 68.5882 41.9708 69.0017C41.3217 69.4255 40.6189 69.7607 39.8776 70C39.5069 70.1143 39.1284 70.2058 38.7439 70.2742C38.363 70.3388 37.9819 70.3822 37.6024 70.4125C36.8437 70.469 36.0934 70.4676 35.3586 70.4492C34.5456 70.4284 33.7285 70.4128 32.958 70.236C32.4575 70.1161 31.9571 70.0246 31.4565 69.9438C30.956 69.8614 30.4555 69.7858 29.9553 69.7167C28.9547 69.5761 27.9551 69.4519 26.9596 69.3041L26.9196 69.2982C26.7877 69.2786 26.6582 69.2321 26.5387 69.1614C26.4191 69.0907 26.3117 68.9971 26.2228 68.886C26.1338 68.7749 26.0649 68.6485 26.02 68.5139C25.9752 68.3794 25.9552 68.2394 25.9614 68.1019C25.9671 67.9823 25.992 67.8666 26.0351 67.7595C26.128 67.5309 26.2192 67.3015 26.3184 67.0771C26.4273 66.8586 26.5318 66.6374 26.65 66.4259C27.5894 64.7022 28.9072 63.2606 30.5059 62.2079C31.9387 61.295 33.5751 60.7439 35.3001 60.5932C37.0037 60.4497 38.7511 60.6855 40.4309 61.2856C41.7573 61.7587 42.9275 62.5814 43.6211 63.6595C43.7832 63.9023 43.8157 64.0724 43.7265 64.1769C43.7006 64.2037 43.6707 64.2258 43.6377 64.2426C43.5956 64.262 43.5511 64.276 43.505 64.2842C43.4478 64.2948 43.3896 64.3005 43.3307 64.3012C43.2623 64.3054 43.1927 64.2985 43.1242 64.2807C43.0256 64.2515 42.9267 64.2234 42.8241 64.2026C42.7289 64.1715 42.6348 64.1351 42.5424 64.0936C42.3599 64.0109 42.1678 63.9476 41.9823 63.8721C41.7981 63.7934 41.6058 63.7344 41.4193 63.6639C41.2339 63.5899 41.0419 63.5363 40.8551 63.4713C40.2381 63.2721 39.6155 63.0254 38.9779 62.8798L38.9681 62.915Z" fill="#7A7B75"/>
<path d="M32.1094 45.1967C31.9112 44.5584 31.6735 43.9307 31.398 43.318C31.1174 42.7098 30.7942 42.1211 30.4315 41.5569C30.0437 40.9601 29.5904 40.41 29.082 39.9198C27.9697 38.8674 26.7024 38.0203 25.3426 37.4202C23.9966 36.824 22.5854 36.4644 21.1694 36.3567L22.2816 35.1916L22.332 35.7298C22.3515 35.9092 22.379 36.0887 22.4013 36.2681C22.4556 36.6267 22.5164 36.9854 22.5958 37.342C23.1193 39.6117 24.1458 41.767 25.5883 43.625C25.9434 44.0793 26.3266 44.5093 26.7349 44.9119C27.1505 45.3149 27.5858 45.6944 28.0385 46.0486C28.4962 46.4051 28.9701 46.7361 29.4582 47.0399C29.9466 47.3472 30.4481 47.6277 30.9605 47.8801C31.5744 48.1934 32.1842 48.5453 32.8007 48.8579C33.3001 49.0894 33.7115 49.5099 33.9465 50.0291C34.0227 50.17 34.0551 50.329 34.039 50.4817C34.0228 50.6345 33.9589 50.7727 33.857 50.8753C33.6503 51.0765 33.2622 51.1801 32.7468 51.0886C32.0734 50.9573 31.4135 50.7191 30.7902 50.3824C29.3729 49.644 28.0184 48.7598 26.7486 47.7439C26.1071 47.2355 25.4956 46.6846 24.9183 46.0948C24.3387 45.4983 23.7925 44.8668 23.2833 44.2042C22.722 43.4764 22.1639 42.6744 21.8371 41.8349C21.409 40.7522 21.0425 39.6491 20.7397 38.5318C20.4358 37.4152 20.2339 36.2803 20.1369 35.1433L20.1351 35.119C20.1252 34.9821 20.1409 34.8471 20.1814 34.7217C20.2219 34.5963 20.2863 34.4828 20.3711 34.3879C20.4558 34.293 20.5592 34.2184 20.6753 34.1684C20.7914 34.1184 20.918 34.094 21.0477 34.0966C21.075 34.0972 21.1041 34.0991 21.131 34.1019C21.3761 34.1284 21.6214 34.1531 21.8659 34.1864C22.1098 34.2326 22.354 34.2721 22.5959 34.3299C24.5609 34.7633 26.46 35.6031 28.1793 36.7988C28.9348 37.34 29.6454 37.9523 30.3011 38.627C30.9608 39.3022 31.5544 40.045 32.0712 40.8419C33.0771 42.4179 33.8253 44.143 34.2811 45.9372C34.4611 46.6228 34.5553 47.322 34.5611 48.0163C34.5547 48.6611 34.4481 49.2906 34.2455 49.8801C34.0798 50.3996 33.7346 50.3117 33.5123 49.7228C33.4759 49.6186 33.4373 49.5145 33.3922 49.4101C33.3518 49.3059 33.3227 49.2022 33.288 49.0984C33.2304 48.891 33.1338 48.6841 33.082 48.4772C33.0337 48.27 32.9687 48.0629 32.9142 47.8561C32.8627 47.6489 32.796 47.4434 32.7377 47.2381C32.5369 46.566 32.3879 45.8643 32.1438 45.1927L32.1094 45.1967Z" fill="#7A7B75"/>
<path d="M56.5118 49.4968C56.7972 48.0246 56.9031 46.503 56.8269 44.9672C56.7923 44.1654 56.6633 43.3618 56.443 42.5746C56.1462 41.5367 55.7192 40.5329 55.1739 39.5911C54.6509 38.6687 53.9927 37.8304 53.2265 37.1108L52.9423 36.8508C52.8459 36.7672 52.7434 36.6929 52.6448 36.613C52.4479 36.4547 52.2434 36.3079 52.0323 36.1734C51.9299 36.1018 51.8241 36.0363 51.7155 35.9772L51.3948 35.7903C51.3746 35.7778 51.3537 35.7665 51.3325 35.7565C51.316 35.7476 51.2991 35.741 51.2825 35.7332C51.2492 35.7184 51.2165 35.7061 51.1865 35.6959C51.1486 35.6819 51.1096 35.6727 51.0704 35.6685C51.1257 35.6704 51.1789 35.6563 51.2243 35.6276C51.2828 35.5975 51.3345 35.5559 51.3771 35.5048C51.415 35.4605 51.4448 35.4091 51.4654 35.3527C51.4904 35.2713 51.4723 35.3072 51.4692 35.4369L51.4483 35.8629L51.3597 37.5713C51.2732 38.9701 51.2322 40.3871 51.1945 41.7691C51.1496 43.1269 51.1802 44.4939 51.2862 45.8631C51.3422 46.5272 51.4301 47.1911 51.5498 47.8521C51.6695 48.4964 51.8274 49.1358 52.0225 49.7667C52.3962 51.004 52.9688 52.183 53.714 53.2497C54.1429 53.8838 54.6124 54.4885 55.1187 55.059C55.2365 55.1798 55.3455 55.3096 55.4447 55.4471C55.535 55.568 55.6176 55.6946 55.6919 55.8261C55.8242 56.0675 55.9224 56.3253 55.9833 56.5905C56.0655 56.9663 55.9685 57.2487 55.6825 57.3616C55.5053 57.4222 55.3124 57.4345 55.1208 57.3975C54.8534 57.3384 54.5931 57.2331 54.3509 57.0861C53.6188 56.6323 52.9697 56.0328 52.4439 55.3251C51.288 53.7674 50.4077 52.0183 49.8507 50.1728C49.2945 48.3544 49.0375 46.5277 48.8882 44.7297C48.8062 43.7381 48.739 42.7094 48.8524 41.7836C48.9425 41.0448 49.0193 40.3104 49.0829 39.5803C49.1138 39.2145 49.1447 38.8501 49.1672 38.4834L49.2192 37.3812L49.3111 35.1748C49.3155 35.0888 49.3178 34.9778 49.3351 34.826C49.3558 34.6323 49.4043 34.4458 49.4788 34.2724C49.5781 34.0495 49.7261 33.8578 49.9118 33.7114C50.0887 33.575 50.2943 33.482 50.5156 33.4382C50.8347 33.3799 51.1693 33.4008 51.4937 33.4994C51.6233 33.537 51.7512 33.5833 51.8765 33.6382C51.938 33.6637 51.9963 33.6933 52.0556 33.7218C52.11 33.7509 52.1814 33.7863 52.2194 33.8116C53.2848 34.4289 54.2577 35.2262 55.0951 36.1682C55.9182 37.0873 56.6089 38.1249 57.1413 39.2421C58.0701 41.1946 58.6004 43.2968 58.6952 45.4023C58.7781 47.4415 58.603 49.4574 58.1744 51.3971C58.0978 51.7814 57.9994 52.1511 57.8943 52.5108C57.7848 52.8617 57.6574 53.2047 57.5128 53.5383C57.375 53.8606 57.2209 54.1737 57.051 54.4763C56.8745 54.7692 56.6973 55.0508 56.5115 55.3167C56.3383 55.5605 56.193 55.6469 56.0756 55.5759C56.044 55.5536 56.0162 55.5256 55.9934 55.4934C55.9643 55.4491 55.9404 55.4016 55.9222 55.3521C55.8978 55.2869 55.8782 55.2202 55.8636 55.1527C55.8416 55.07 55.8316 54.9854 55.834 54.9019C55.8447 54.6521 55.8554 54.3995 55.8663 54.1442C55.8757 53.8894 55.9124 53.6451 55.9397 53.3954C55.9692 53.1479 55.9987 52.8995 56.0284 52.6501C56.0599 52.4027 56.0812 52.1527 56.1242 51.9104C56.2441 51.1091 56.436 50.315 56.5457 49.5124C56.5345 49.5074 56.5241 49.5025 56.5118 49.4968Z" fill="#7A7B75"/>
<path d="M75.2461 57.5978C75.3589 57.0326 75.4299 56.4551 75.4586 55.8704C75.4841 55.2824 75.4589 54.6882 75.3833 54.0949C75.3137 53.4629 75.162 52.8357 74.9327 52.231C74.4273 50.9328 73.6791 49.7343 72.7358 48.7118C72.2687 48.2097 71.7615 47.7509 71.2208 47.3417C70.9531 47.1386 70.676 46.9505 70.391 46.7784C70.2469 46.6974 70.1058 46.6087 69.9602 46.5321L69.7399 46.4225C69.6705 46.3753 69.5976 46.3369 69.5265 46.2932L70.9096 45.4345C70.8963 45.6084 70.8763 45.7816 70.8679 45.9562L70.849 46.4812L70.8144 47.5318C70.7986 48.6562 70.8152 49.7837 70.8643 50.9145C70.9137 52.0441 70.961 53.1807 71.0606 54.2738C71.1448 55.3388 71.3254 56.4026 71.6001 57.4507C71.7376 57.9462 71.9081 58.4341 72.1103 58.9105C72.3034 59.3767 72.5356 59.8272 72.8039 60.2561C73.1105 60.7696 73.4438 61.2666 73.8021 61.7444C73.9638 61.9434 74.0943 62.1669 74.188 62.4052C74.2315 62.5164 74.2658 62.6306 74.2903 62.7463C74.3173 62.8607 74.3357 62.9762 74.3453 63.0919C74.3753 63.4342 74.269 63.7006 74.0132 63.8116C73.7613 63.9241 73.3469 63.8816 72.8896 63.5801C72.2995 63.1796 71.7896 62.6537 71.3969 62.0407C70.9552 61.3724 70.5774 60.6638 70.2696 59.9263C70.1164 59.5656 69.982 59.198 69.8671 58.8252C69.7483 58.4543 69.6516 58.0869 69.5612 57.7177C69.2384 56.2734 69.023 54.8154 68.917 53.3572C68.8223 52.576 68.7945 51.7941 68.8341 51.0211C69.0122 49.0886 68.9615 47.1335 68.9393 45.1771C68.9377 45.0269 68.9702 44.8819 69.0342 44.754C69.0982 44.6261 69.1918 44.519 69.3073 44.4417C69.4227 44.3643 69.5568 44.3188 69.6983 44.309C69.8398 44.2992 69.9847 44.3253 70.1211 44.3852L70.1754 44.4097L70.5075 44.5576C70.6158 44.6136 70.7258 44.6657 70.8319 44.7262C71.0415 44.8525 71.2544 44.9727 71.4575 45.11C73.0909 46.1861 74.4818 47.6491 75.5047 49.3671C76.3979 50.8907 76.974 52.5732 77.1909 54.2919C77.4007 55.9824 77.2891 57.6679 76.8629 59.249C76.7056 59.8561 76.4605 60.4265 76.1357 60.9413C75.9817 61.1856 75.8 61.4081 75.5942 61.6044C75.4003 61.7956 75.1926 61.9709 74.9724 62.129C74.7726 62.2683 74.6247 62.2872 74.5241 62.1916C74.4981 62.1641 74.4758 62.1331 74.458 62.0994C74.4371 62.0566 74.4208 62.0117 74.4095 61.9659C74.3951 61.9088 74.385 61.851 74.3793 61.7931C74.3685 61.7256 74.3695 61.6577 74.3823 61.593C74.4695 61.224 74.5231 60.836 74.5955 60.4659C74.6931 60.1097 74.7846 59.7511 74.8663 59.3926C75.0005 58.8049 75.1848 58.2211 75.2792 57.6117L75.2461 57.5978Z" fill="#7A7B75"/>
</g>
<defs>
<clipPath id="clip0_28_140">
<rect width="88" height="79" fill="white" transform="translate(45.4158 116.146) rotate(-121.07)"/>
</clipPath>
</defs>
</svg>
