<svg width="71" height="71" viewBox="0 0 71 71" fill="none" xmlns="http://www.w3.org/2000/svg">
<path d="M1.84928 60.4283H69.1507C70.172 60.4283 71 59.6004 71 58.579V21.4179V20.2559V12.421C71 11.3996 70.172 10.5717 69.1507 10.5717H1.84928C0.828034 10.5717 0 11.3996 0 12.421V20.2559V21.4179V58.579C0 59.6004 0.828034 60.4283 1.84928 60.4283ZM67.3014 56.7298H3.69856V23.2362L34.6789 38.5886C35.1961 38.8448 35.8039 38.8448 36.3211 38.5886L67.3014 23.2362V56.7298ZM67.3014 14.2702V19.1084L35.5 34.8677L3.69856 19.1084V14.2702H67.3014Z" fill="#EDE8D0"/>
</svg>
