<svg width="128" height="127" viewBox="0 0 128 127" fill="none" xmlns="http://www.w3.org/2000/svg">
<g id="Frame" clip-path="url(#clip0_28_45)">
<path id="Vector" d="M101.237 84.8585C80.8259 73.3644 39.6815 58.0641 35.5067 28.882C33.6043 15.5834 57.4633 35.4826 61.1932 38.6154C72.1366 47.807 81.5249 59.9194 89.7048 71.6067C90.7372 73.0818 100.233 86.0889 98.0766 79.6399" stroke="#7A7B75" stroke-width="2" stroke-linecap="round"/>
<path id="Vector_2" d="M104.273 82.2758C84.71 75.4354 55.9584 62.9016 34.6835 70.176C31.269 71.3434 26.6293 73.2787 25.1288 76.9016C23.073 81.8651 26.4132 89.3118 32.2045 89.4318C42.1673 89.638 52.9553 85.5613 62.7978 84.118C71.9888 82.7702 81.3299 81.8153 90.616 82.6576C92.2809 82.8087 100.921 85.7226 99.3391 85.0196" stroke="#7A7B75" stroke-width="2" stroke-linecap="round"/>
<path id="Vector_3" d="M103.846 78.2201C84.1185 67.6356 71.6501 53.5946 61.5668 33.3865C60.2499 30.7472 52.0394 4.28495 59.0396 7.31759C90.0942 20.771 89.7981 61.1761 103.437 86.7196" stroke="#7A7B75" stroke-width="2" stroke-linecap="round"/>
</g>
<defs>
<clipPath id="clip0_28_45">
<rect width="86" height="94" fill="white" transform="translate(0 64.4298) rotate(-48.5198)"/>
</clipPath>
</defs>
</svg>
