<svg width="128" height="127" viewBox="0 0 128 127" fill="none" xmlns="http://www.w3.org/2000/svg">
<g id="Frame" clip-path="url(#clip0_28_50)">
<path id="Vector" d="M26.1493 41.8333C46.5605 53.3274 87.705 68.6278 91.8797 97.8099C93.7821 111.108 69.9232 91.2093 66.1932 88.0764C55.2499 78.8849 45.8616 66.7724 37.6816 55.0851C36.6492 53.6101 27.1537 40.6029 29.3098 47.0519" stroke="#7A7B75" stroke-width="2" stroke-linecap="round"/>
<path id="Vector_2" d="M23.1137 44.4161C42.6765 51.2565 71.4281 63.7902 92.703 56.5159C96.1175 55.3484 100.757 53.4131 102.258 49.7903C104.313 44.8267 100.973 37.38 95.182 37.2601C85.2192 37.0539 74.4312 41.1306 64.5887 42.5738C55.3977 43.9216 46.0566 44.8766 36.7705 44.0343C35.1056 43.8832 26.4656 40.9692 28.0474 41.6723" stroke="#7A7B75" stroke-width="2" stroke-linecap="round"/>
<path id="Vector_3" d="M23.5405 48.4718C43.268 59.0563 55.7363 73.0973 65.8196 93.3053C67.1366 95.9446 75.3471 122.407 68.3468 119.374C37.2922 105.921 37.5883 65.5157 23.9497 39.9722" stroke="#7A7B75" stroke-width="2" stroke-linecap="round"/>
</g>
<defs>
<clipPath id="clip0_28_50">
<rect width="86" height="94" fill="white" transform="translate(127.386 62.262) rotate(131.48)"/>
</clipPath>
</defs>
</svg>
