<svg width="253" height="259" viewBox="0 0 253 259" fill="none" xmlns="http://www.w3.org/2000/svg">
<path d="M172.542 41.8787C177.028 44.4225 181.339 47.3046 185.406 50.5376C189.465 53.772 193.31 57.3499 196.74 61.3171C203.573 69.1626 209.122 78.0223 213.453 87.4189C218.055 97.3871 221.218 108.046 223.028 118.906C223.607 122.535 224.032 126.196 224.255 129.882C224.454 133.569 224.466 137.276 224.266 140.983C224.059 144.692 223.589 148.396 222.897 152.069C222.706 152.985 222.554 153.907 222.327 154.817L221.657 157.547L220.865 160.251C220.616 161.156 220.267 162.034 219.971 162.926C219.813 163.37 219.67 163.818 219.499 164.257L218.972 165.569C218.619 166.443 218.273 167.332 217.89 168.145L216.765 170.64C216.378 171.466 215.969 172.282 215.571 173.104L214.97 174.334L214.331 175.546C213.902 176.353 213.485 177.165 213.045 177.966C212.139 179.553 211.255 181.154 210.278 182.701C209.343 184.273 208.309 185.784 207.306 187.314C206.246 188.806 205.211 190.317 204.083 191.761C201.87 194.677 199.514 197.491 196.987 200.145C194.466 202.802 191.824 205.35 189.023 207.712C186.222 210.072 183.295 212.28 180.253 214.315C174.169 218.387 167.6 221.694 160.769 224.246C153.925 226.767 146.808 228.484 139.601 229.411C132.389 230.31 125.094 230.409 117.869 229.753C100.078 228.085 82.7509 221.779 67.9201 211.57C60.5063 206.468 53.7152 200.401 47.7875 193.542L46.6778 192.255L45.591 190.907C44.8551 190.017 44.1676 189.086 43.4834 188.153C42.1084 186.293 40.8469 184.347 39.6333 182.373C37.2446 178.399 35.217 174.204 33.5431 169.88C30.1728 161.229 28.3622 152.039 27.7862 142.858C27.2505 133.665 27.9679 124.458 29.7383 115.512C33.3138 97.62 40.934 80.7019 51.8484 66.277C58.4495 57.5816 66.6638 50.0128 75.6718 44.2083C80.0011 41.4453 83.8905 39.725 87.183 38.7003C88.8236 38.1717 90.3397 37.863 91.6824 37.6311C93.0481 37.4538 94.2386 37.3408 95.3081 37.3818C98.4127 37.4816 98.6981 38.6551 96.7908 40.4005C96.5521 40.6195 96.2777 40.8443 95.9716 41.083C95.669 41.3313 95.333 41.589 94.9646 41.8551C94.5962 42.1212 94.195 42.3953 93.7622 42.6775C93.3362 42.9769 92.8787 43.2849 92.3901 43.6006C90.4393 44.87 88.0296 46.3537 85.2686 48.1724C78.2602 52.7291 71.1615 58.5917 65.1799 64.9782C58.2685 72.2991 52.451 80.7605 47.9079 89.8816C43.3504 98.9964 40.0565 108.787 38.251 118.828C37.333 123.845 36.8308 128.928 36.6964 134.005C36.6038 139.081 36.883 144.154 37.655 149.134C39.1634 159.092 42.5444 168.688 47.7797 177.041C49.2361 179.337 50.8353 181.564 52.5509 183.701C54.2686 185.804 56.189 187.899 58.1081 189.903C62.0067 193.884 66.1328 197.561 70.3184 200.878C73.6524 203.538 77.1818 205.962 80.8653 208.129C84.5526 210.289 88.397 212.183 92.3506 213.808C100.258 217.06 108.614 219.221 117.096 220.171C134.056 222.135 151.492 219.252 166.809 211.759C178.22 206.232 188.362 197.948 196.434 187.861C198.438 185.327 200.361 182.719 202.134 179.998C203.892 177.268 205.589 174.49 207.102 171.597L207.683 170.521L208.232 169.427L209.329 167.236L210.36 165.01L210.876 163.896L211.334 162.798C211.626 162.061 211.967 161.346 212.222 160.593L213.029 158.349C213.498 156.826 213.994 155.311 214.365 153.752C214.752 152.38 215.004 150.968 215.313 149.571L215.674 147.45L215.853 146.388L215.987 145.318C216.399 142.471 216.556 139.581 216.668 136.691C216.783 130.903 216.404 125.073 215.457 119.317C215.027 116.432 214.39 113.579 213.729 110.736C212.997 107.909 212.231 105.086 211.281 102.322C209.453 96.7709 207.145 91.3839 204.453 86.2124C199.042 75.9042 192.033 66.3714 183.292 58.9535C174.542 51.4721 164.241 45.8368 153.382 41.9929C144.698 38.9462 135.923 37.0141 127.383 36.0921C118.839 35.1722 110.526 35.2685 102.649 36.3414C101.747 36.477 100.944 36.5332 100.266 36.6004C99.5876 36.6652 99.0178 36.6809 98.5602 36.6521C97.6452 36.5946 97.1786 36.3599 97.1987 35.9829C97.2186 35.6061 97.7263 35.0861 98.7567 34.4614C99.2717 34.1497 99.9145 33.8002 100.705 33.491C101.494 33.1794 102.408 32.8079 103.473 32.5109C106.479 31.609 109.585 30.9557 112.739 30.4271C115.899 29.9462 119.11 29.6396 122.346 29.5093C128.814 29.2936 135.367 29.7673 141.785 30.92C152.363 32.7631 162.787 36.7394 172.391 41.9585C172.44 41.9301 172.486 41.9044 172.542 41.8787Z" fill="#7A7B75"/>
<path d="M67.0753 106.368C68.6447 105.559 70.2251 104.768 71.7785 103.934C72.6002 103.489 73.4355 103.056 74.158 102.468C76.07 100.911 78.0519 99.1912 80.4023 97.6251C82.7369 96.0732 85.5362 94.6401 88.8015 94.091C90.798 93.7779 92.862 93.745 94.8167 94.0677C96.7708 94.3817 98.6122 94.9645 100.313 95.6907C102.023 96.4136 103.568 97.3006 105.025 98.2324C106.483 99.1669 107.843 100.163 109.127 101.179C109.909 101.79 110.455 102.697 110.955 103.584C111.439 104.438 111.109 105.752 110.387 107.209C109.326 109.329 107.376 110.907 106.093 110.587C105.28 110.395 104.649 109.874 104.136 109.289C102.952 107.943 101.631 106.81 100.201 105.974C98.7768 105.138 97.2373 104.604 95.7481 104.492C94.9158 104.411 94.1033 104.599 93.4842 104.14C92.4727 103.429 91.3095 103.308 90.2041 103.426C89.0911 103.553 87.9803 103.966 86.7249 104.29C84.8348 104.783 83.0583 106.049 81.1068 107.202C77.4853 109.379 73.8653 111.556 70.2451 113.733C68.7969 114.609 67.0923 114.94 64.8628 114.195C63.834 113.847 62.6636 112.068 63.0071 111.233C63.4913 110.048 64.1555 109.033 64.9109 108.161C65.5307 107.443 66.3944 107.036 67.1502 106.492C67.1249 106.45 67.1015 106.411 67.0753 106.368Z" fill="#7A7B75"/>
<path d="M179.972 110.23C178.726 108.895 177.433 107.587 176.054 106.374C175.323 105.731 174.578 105.087 173.728 104.632C171.463 103.411 169.108 102.396 166.731 101.514C164.366 100.628 162.164 100.037 160.423 99.9852C159.887 99.968 159.395 100 158.939 100.078C158.739 100.127 158.611 100.179 158.431 100.208C158.214 100.305 158.006 100.371 157.775 100.463C156.814 100.877 155.648 101.612 154.51 102.462C152.207 104.169 149.908 106.346 147.738 108.649C147.086 109.349 146.175 109.824 145.28 110.309C144.42 110.768 143.137 110.437 141.698 109.703C139.599 108.641 138.086 106.611 138.587 105.117C138.899 104.178 139.56 103.425 140.293 102.822C141.981 101.432 143.573 99.9752 145.146 98.44C146.726 96.9059 148.262 95.2915 150.015 93.6057C150.524 93.1488 150.982 92.633 151.588 92.2147C151.88 92.0022 152.181 91.8057 152.494 91.6398C152.831 91.4814 153.188 91.3574 153.549 91.2786C154.102 91.143 154.744 91.0321 155.349 90.9082L155.803 90.8141C155.96 90.7851 156.136 90.7663 156.301 90.7421L157.302 90.6072C158.565 90.478 159.733 90.4794 160.894 90.5556C163.198 90.7191 165.311 91.2437 167.12 92.1191C168.399 92.7464 169.682 93.3752 170.965 94.0045C172.206 94.621 173.437 95.2617 174.607 96.0045C178.789 98.6423 182.612 101.767 186.112 105.16C187.508 106.514 188.401 108.311 188.23 110.804C188.152 111.951 186.649 113.448 185.755 113.247C184.487 112.954 183.34 112.497 182.303 111.938C181.449 111.483 180.816 110.723 180.066 110.121C180.034 110.158 180.005 110.191 179.972 110.23Z" fill="#7A7B75"/>
<path d="M172.56 159.778C169.954 163.342 166.998 166.638 163.733 169.593C162.854 170.363 161.963 171.121 161.066 171.869L159.696 172.963L159.023 173.523L158.33 174.06C155.921 176.043 153.271 177.753 150.492 179.232C147.713 180.718 144.757 181.911 141.73 182.756C135.669 184.466 129.324 184.939 123.129 184.292C119.315 183.882 115.554 183.065 111.907 181.886C108.25 180.703 104.741 179.153 101.403 177.329C94.7113 173.679 88.7543 168.893 83.5014 163.533C81.9019 161.923 80.6355 159.968 79.4588 158.051C78.3451 156.196 78.4254 154.344 79.1355 152.703C79.651 151.507 80.5833 150.773 81.6464 150.549C82.7185 150.319 83.8865 150.625 84.9928 151.481C85.6865 152.031 86.339 152.662 86.97 153.321C87.5873 153.994 88.189 154.686 88.7489 155.388C91.3291 158.619 94.3113 161.481 97.5571 163.933C100.829 166.34 104.367 168.353 108.102 169.712C110.159 170.498 112.359 170.983 114.218 171.974C117.217 173.548 120.533 174.428 123.87 174.867C127.217 175.317 130.579 175.282 133.913 175.153C136.394 175.048 138.871 174.652 141.254 173.954C143.644 173.273 145.933 172.322 148.184 171.249C152.163 169.264 155.91 166.631 159.207 163.401C160.887 161.822 162.412 160.058 163.89 158.245C164.594 157.309 165.336 156.398 165.987 155.415C166.32 154.929 166.667 154.452 166.988 153.956L167.934 152.455C169.922 149.234 172.026 146.324 174.948 143.92C176.304 142.819 178.252 143.609 178.02 145.528C177.719 148.24 176.951 150.979 175.914 153.594C175.47 154.661 174.956 155.711 174.335 156.707L173.418 158.209C173.096 158.7 172.774 159.191 172.453 159.68C172.488 159.713 172.521 159.743 172.56 159.778Z" fill="#7A7B75"/>
</svg>
