<svg width="74" height="109" viewBox="0 0 74 109" fill="none" xmlns="http://www.w3.org/2000/svg">
<g clip-path="url(#clip0_177_149)">
<path d="M55.0705 52.3425C50.7431 53.5445 46.68 55.227 45.5863 49.797C44.9341 46.5587 46.0802 43.8303 48.9536 42.12C60.5569 35.2137 69.7941 49.3561 64.2962 59.6783C60.3729 67.0441 51.9741 70.8717 43.933 70.8435C32.9837 70.805 30.1658 58.4863 31.8184 49.2822C33.6199 39.2488 41.665 29.5934 52.7711 30.9932C66.7784 32.7586 75.3693 49.0543 71.3578 61.9149C67.4227 74.5305 58.2784 85.7482 45.3138 89.5685C38.6992 91.5177 30.5259 92.3787 23.7353 90.8019C13.8652 88.51 9.1442 78.6332 6.9352 69.606C3.54301 55.7438 12.3063 41.8645 21.8316 32.5193C31.75 22.7884 44.0067 17.8495 57.7352 22.4623C70.5223 26.7588 73.1949 39.5421 72.3208 51.5915C70.8468 71.9107 59.282 88.729 43.3617 101.061C28.8635 112.291 5.54654 110.793 2.16891 89.8895C0.0942335 77.0499 2.31599 62.9136 6.80601 50.8123C10.661 40.4224 16.6367 30.5412 23.9129 22.1959C38.706 5.22938 32.2334 16.2863 48.2026 1" stroke="#7A7B75" stroke-width="1.15035" stroke-linecap="round"/>
</g>
<defs>
<clipPath id="clip0_177_149">
<rect width="74" height="109" fill="white"/>
</clipPath>
</defs>
</svg>
