<svg width="172" height="172" viewBox="0 0 172 172" fill="none" xmlns="http://www.w3.org/2000/svg">
<g clip-path="url(#clip0_177_146)">
<path d="M171.237 20.9586C171.601 20.5936 171.848 20.1289 171.948 19.6233C172.049 19.1177 171.997 18.5937 171.799 18.1176C171.602 17.6415 171.268 17.2345 170.839 16.9481C170.411 16.6616 169.907 16.5085 169.391 16.5082H159.175L171.233 4.45766C171.488 4.21856 171.693 3.93058 171.835 3.61084C171.976 3.29111 172.052 2.94614 172.058 2.59646C172.064 2.24678 171.999 1.89952 171.868 1.57534C171.737 1.25115 171.542 0.956652 171.294 0.709357C171.047 0.462063 170.753 0.267019 170.428 0.135822C170.104 0.00462613 169.757 -0.0600433 169.407 -0.0543407C169.057 -0.0486381 168.713 0.0273201 168.393 0.169017C168.073 0.310715 167.785 0.515258 167.546 0.770485L155.495 12.8282V2.6087C155.496 2.0928 155.343 1.58834 155.057 1.15926C154.77 0.730186 154.363 0.395815 153.886 0.198539C153.41 0.0012634 152.885 -0.0500336 152.379 0.0511512C151.873 0.152336 151.409 0.401446 151.045 0.766902L135.719 16.0925C121.242 5.65049 103.85 0.0212315 86 8.41076e-05C68.9908 8.41076e-05 52.3636 5.04379 38.221 14.4934C24.0784 23.943 13.0555 37.3741 6.5464 53.0882C0.0372626 68.8023 -1.66582 86.0937 1.6525 102.776C4.97083 119.458 13.1615 134.781 25.1889 146.808C37.2162 158.835 52.5399 167.026 69.2223 170.344C85.9046 173.662 103.196 171.959 118.911 165.45C134.625 158.941 148.057 147.919 157.506 133.776C166.956 119.634 172 103.007 172 85.9983C171.976 68.1504 166.344 50.7613 155.9 36.2877L171.237 20.9586ZM150.281 8.9009V19.1204C150.283 19.8113 150.559 20.4733 151.048 20.9616C151.537 21.4498 152.199 21.7244 152.89 21.7254H163.103L143.989 40.8492H131.172V28.0176L150.281 8.9009ZM166.786 85.9983C166.869 104.174 160.847 121.851 149.687 136.197C138.526 150.543 122.873 160.727 105.235 165.118C87.597 169.508 68.9958 167.85 52.4122 160.41C35.8285 152.97 22.2226 140.179 13.7747 124.086C5.32678 107.992 2.52606 89.5288 5.82131 71.6543C9.11657 53.7797 18.317 37.5287 31.9483 25.5056C45.5796 13.4825 62.8525 6.38331 80.999 5.34573C99.1455 4.30815 117.115 9.39224 132.028 19.7833L126.725 25.0829C126.235 25.571 125.959 26.2334 125.958 26.9247V42.3327L120.296 47.9943C111.569 40.0856 100.372 35.4437 88.6087 34.858V26.9354C88.6087 26.5929 88.5412 26.2537 88.4101 25.9372C88.279 25.6207 88.0869 25.3331 87.8446 25.0909C87.6024 24.8486 87.3148 24.6565 86.9983 24.5254C86.6818 24.3943 86.3426 24.3268 86 24.3268C85.6575 24.3268 85.3182 24.3943 85.0017 24.5254C84.6852 24.6565 84.3977 24.8486 84.1554 25.0909C83.9132 25.3331 83.721 25.6207 83.5899 25.9372C83.4588 26.2537 83.3914 26.5929 83.3914 26.9354V34.8867C70.7374 35.5439 58.7757 40.8662 49.816 49.8257C40.8562 58.7853 35.5339 70.7467 34.8766 83.4004H26.9288C26.2379 83.4004 25.5753 83.6749 25.0867 84.1634C24.5982 84.652 24.3237 85.3146 24.3237 86.0055C24.3237 86.6964 24.5982 87.359 25.0867 87.8475C25.5753 88.336 26.2379 88.6105 26.9288 88.6105H34.8766C35.5339 101.264 40.8562 113.226 49.816 122.185C58.7757 131.145 70.7374 136.467 83.3914 137.124V145.075C83.3914 145.767 83.6662 146.431 84.1554 146.92C84.6447 147.409 85.3082 147.684 86 147.684C86.6919 147.684 87.3554 147.409 87.8446 146.92C88.3339 146.431 88.6087 145.767 88.6087 145.075V137.124C101.262 136.466 113.223 131.144 122.182 122.184C131.141 113.225 136.463 101.264 137.12 88.6105H145.071C145.762 88.6105 146.425 88.336 146.913 87.8475C147.402 87.359 147.676 86.6964 147.676 86.0055C147.676 85.3146 147.402 84.652 146.913 84.1634C146.425 83.6749 145.762 83.4004 145.071 83.4004H137.12C136.534 71.6366 131.892 60.4387 123.983 51.7101L129.649 46.0485H145.057C145.753 46.0496 146.422 45.7753 146.917 45.2853L152.159 40.043C161.653 53.4886 166.762 69.5387 166.786 85.9983ZM124.223 88.5997H131.91C131.263 99.8735 126.493 110.516 118.509 118.501C110.524 126.487 99.8826 131.258 88.6087 131.907V124.221C88.6087 123.529 88.3339 122.866 87.8446 122.376C87.3554 121.887 86.6919 121.612 86 121.612C85.3082 121.612 84.6447 121.887 84.1554 122.376C83.6662 122.866 83.3914 123.529 83.3914 124.221V131.907C72.1184 131.259 61.477 126.489 53.4927 118.505C45.5083 110.521 40.7383 99.8797 40.0904 88.6069H47.7766C48.4675 88.6069 49.1301 88.3325 49.6187 87.8439C50.1072 87.3554 50.3817 86.6928 50.3817 86.0019C50.3817 85.311 50.1072 84.6484 49.6187 84.1598C49.1301 83.6713 48.4675 83.3969 47.7766 83.3969H40.0904C40.7396 72.1239 45.5099 61.4828 53.4938 53.4977C61.4778 45.5126 72.1183 40.7407 83.3914 40.0896V47.7793C83.3914 48.4711 83.6662 49.1346 84.1554 49.6238C84.6447 50.113 85.3082 50.3879 86 50.3879C86.6919 50.3879 87.3554 50.113 87.8446 49.6238C88.3339 49.1346 88.6087 48.4711 88.6087 47.7793V40.0896C98.9901 40.6718 108.865 44.7685 116.609 51.7065L95.6464 72.6686C92.2596 70.2064 88.0691 69.1114 83.9108 69.602C79.7524 70.0927 75.9318 72.1329 73.2112 75.3157C70.4905 78.4986 69.0698 82.59 69.2323 86.774C69.3949 90.9579 71.1287 94.9269 74.0881 97.889C77.0475 100.851 81.0148 102.589 85.1987 102.756C89.3826 102.922 93.4755 101.505 96.661 98.7879C99.8465 96.0704 101.891 92.2519 102.385 88.0941C102.88 83.9363 101.789 79.7448 99.33 76.3557L120.293 55.3865C127.231 63.1332 131.326 73.0101 131.906 83.3933H124.22C123.869 83.3803 123.52 83.4381 123.192 83.5632C122.865 83.6884 122.566 83.8783 122.313 84.1217C122.061 84.365 121.86 84.6568 121.722 84.9795C121.585 85.3023 121.515 85.6494 121.515 86.0001C121.515 86.3508 121.585 86.6979 121.722 87.0207C121.86 87.3434 122.061 87.6352 122.313 87.8785C122.566 88.1219 122.865 88.3118 123.192 88.437C123.52 88.5621 123.869 88.6199 124.22 88.6069L124.223 88.5997ZM84.1546 87.8365C84.6438 88.3251 85.3069 88.5996 85.9982 88.5996C86.6896 88.5996 87.3527 88.3251 87.8419 87.8365L95.5855 80.0967C96.6956 81.8655 97.2877 83.91 97.2947 85.9983C97.2947 88.2313 96.6326 90.4141 95.3921 92.2708C94.1515 94.1275 92.3883 95.5747 90.3254 96.4293C88.2624 97.284 85.9923 97.5078 83.8022 97.0725C81.612 96.6371 79.6001 95.5621 78.0209 93.9834C76.4417 92.4047 75.366 90.3932 74.9299 88.2032C74.4939 86.0133 74.7169 83.7432 75.571 81.68C76.425 79.6168 77.8717 77.8531 79.728 76.612C81.5844 75.371 83.767 74.7082 86 74.7075C88.0872 74.7151 90.1304 75.3072 91.8982 76.4167L84.1546 84.1637C83.9125 84.405 83.7203 84.6918 83.5892 85.0075C83.4582 85.3233 83.3907 85.6618 83.3907 86.0037C83.3907 86.3455 83.4582 86.6841 83.5892 86.9998C83.7203 87.3156 83.9125 87.6023 84.1546 87.8437V87.8365Z" fill="#7A7B75"/>
</g>
<defs>
<clipPath id="clip0_177_146">
<rect width="172" height="172" fill="white"/>
</clipPath>
</defs>
</svg>
