<svg width="176" height="179" viewBox="0 0 176 179" fill="none" xmlns="http://www.w3.org/2000/svg">
<g clip-path="url(#clip0_155_220)">
<path d="M66.847 82.9937C71.8826 82.1046 77.1113 81.9507 82.3914 82.5361C83.001 82.6062 83.6117 82.692 84.222 82.7692L86.054 83.06L87.8837 83.4168L89.7079 83.8214L88.9843 86.2658C88.6833 86.0566 88.3833 85.8481 88.0844 85.6403C87.4769 85.1924 86.8751 84.7325 86.2445 84.326C85.6209 83.9065 84.9963 83.4887 84.364 83.0859C83.1084 82.2626 81.8326 81.4788 80.5458 80.7214C79.2622 79.9564 77.9658 79.2216 76.6565 78.5172C75.3496 77.8087 74.0339 77.1228 72.7058 76.4738C67.4018 73.8738 61.983 71.6347 56.4879 69.7725L57.2276 66.4409C60.3567 67.6699 63.5578 68.9748 66.6763 70.7845C68.3883 71.7626 70.0174 72.9206 71.5339 74.2372C71.7299 74.3985 71.9163 74.5758 72.101 74.7561L72.6576 75.2924C73.027 75.6518 73.3666 76.0519 73.7205 76.4316C74.0618 76.8258 74.3789 77.2456 74.7079 77.6523C75.0058 78.0846 75.2968 78.5224 75.5882 78.958C75.7831 79.2493 75.9005 79.5811 75.9264 79.9137C75.9524 80.2463 75.8858 80.5658 75.7346 80.834C75.5834 81.1023 75.354 81.308 75.0737 81.4267C74.7934 81.5454 74.474 81.5721 74.1535 81.5036L74.0955 81.491C72.3089 81.106 70.529 80.5944 68.7395 80.2227C66.9514 79.8286 65.1603 79.4912 63.3694 79.1361C61.5778 78.8011 59.7853 78.5027 57.9919 78.2406C57.0954 78.1032 56.1989 77.9642 55.3025 77.848C54.4061 77.7252 53.5095 77.6022 52.6133 77.4928C49.0287 77.0622 45.4478 76.716 41.8708 76.4541C38.2954 76.202 34.7288 76.0514 31.1702 75.9622C28.5127 75.91 25.8194 75.7824 23.1877 75.7099C20.6629 75.6075 18.9864 75.3036 17.8954 74.8457C16.3074 74.1936 17.6506 73.388 21.2091 73.0949C23.5585 72.9363 25.9321 72.907 28.3204 73.0072C39.2216 73.3928 50.1269 74.3796 61.065 75.8855C64.0835 76.2695 67.2319 76.6991 70.1664 77.3207C71.5513 77.594 72.9371 77.8875 74.3238 78.2013L72.9595 80.5163C72.0804 79.1344 71.0136 77.8757 69.7991 76.7871C68.5377 75.6684 67.1782 74.6841 65.7464 73.8531C62.8421 72.1356 59.6798 70.8512 56.474 69.5765L56.4295 69.5588C56.0351 69.4019 55.6944 69.0966 55.482 68.7096C55.2696 68.3226 55.2028 67.8855 55.2962 67.4939C55.3895 67.1023 55.6355 66.788 55.9802 66.6199C56.3249 66.4518 56.7403 66.4435 57.1356 66.5968L59.1015 67.36C59.7549 67.6204 60.4047 67.894 61.0551 68.1627C67.8606 71.0204 74.5155 74.4004 80.9588 78.2718L82.1263 78.9767L83.2847 79.7002C84.0592 80.1782 84.8294 80.6646 85.5955 81.1595C86.3669 81.6439 87.1209 82.1618 87.8842 82.6617C88.6557 83.1463 89.4184 83.6489 90.1679 84.1746C90.4053 84.3412 90.5921 84.5796 90.6974 84.8503C90.8026 85.121 90.8199 85.4077 90.7465 85.6631C90.6731 85.9186 90.5134 86.1273 90.2937 86.2548C90.0741 86.3823 89.8077 86.421 89.5386 86.3643L89.5207 86.3603L87.8665 86.0102L86.2098 85.7117L84.552 85.456C83.9994 85.3784 83.447 85.3201 82.8943 85.2508C76.2385 84.5303 69.6873 85.0663 63.5604 86.8325C63.2725 86.9153 62.9857 86.9976 62.71 87.0769L62.672 87.0878C62.438 87.1552 62.1744 87.1208 61.9367 86.9918C61.6991 86.8629 61.506 86.6494 61.3982 86.3965C61.2904 86.1437 61.2763 85.8711 61.3588 85.6362C61.4414 85.4014 61.6141 85.2227 61.8407 85.1378C63.8918 84.3677 65.8665 83.667 67.7263 82.9095C69.5894 82.1583 71.3547 81.3596 73.0642 80.6186C73.9009 80.25 74.3691 80.177 74.4535 80.4054C74.49 80.5118 74.442 80.7098 74.2821 80.9652C74.0591 81.3252 73.7891 81.648 73.4784 81.926C73.1957 82.1756 72.9022 82.417 72.6081 82.6618C72.3122 82.9036 71.9923 83.1172 71.6812 83.3462C71.0454 83.7861 70.3954 84.2223 69.7167 84.6251C68.3585 85.4344 66.9485 86.1606 65.4927 86.8005C64.7108 87.1504 63.9158 87.4748 63.1121 87.792L61.579 84.3725C63.2859 83.8341 65.0614 83.4095 66.8396 83.0496C66.8414 83.0307 66.8434 83.0133 66.847 82.9937Z" fill="#7A7B75"/>
<path d="M96.6872 125.452C102.145 124.58 107.81 124.545 113.511 125.349C116.52 125.76 119.528 126.39 122.513 127.233C123.072 127.397 123.632 127.541 124.188 127.722L125.854 128.277L125.066 130.562C123.67 129.508 122.211 128.575 120.771 127.611C119.327 126.655 117.888 125.693 116.433 124.765C113.528 122.904 110.611 121.08 107.657 119.363C104.701 117.651 101.714 116.032 98.6892 114.58C95.6919 113.121 92.6263 111.878 89.5173 110.863L90.4041 107.755C91.1721 108.164 91.9393 108.579 92.7055 108.999C93.4723 109.42 94.2397 109.845 95.0077 110.276C96.4715 111.096 97.9332 111.947 99.3844 112.837C100.836 113.726 102.279 114.656 103.695 115.655C105.117 116.66 106.499 117.732 107.837 118.866C108.177 119.144 108.501 119.449 108.834 119.739L109.329 120.18L109.813 120.638C110.438 121.272 111.031 121.942 111.656 122.575C111.929 122.852 112.119 123.202 112.195 123.571C112.272 123.94 112.231 124.308 112.079 124.617C111.928 124.926 111.674 125.159 111.357 125.279C111.04 125.399 110.678 125.401 110.327 125.283L110.309 125.276C107.125 124.2 103.93 123.165 100.72 122.237C97.5054 121.344 94.2842 120.488 91.051 119.778C84.588 118.321 78.1127 117.181 71.6249 116.356L67.2793 115.76C65.8299 115.568 64.3889 115.377 62.9561 115.187C61.8098 115.048 60.6626 114.845 59.5196 114.578C58.7629 114.413 58.0132 114.17 57.2822 113.853C56.4525 113.474 56.4224 113.141 57.0894 112.9C57.5737 112.749 58.0795 112.655 58.5984 112.617C59.4133 112.54 60.2393 112.515 61.0717 112.543C61.6893 112.557 62.3201 112.579 62.964 112.607C63.6059 112.636 64.2584 112.697 64.913 112.749C65.5677 112.805 66.2253 112.861 66.8801 112.931C67.5354 113.009 68.1854 113.087 68.8301 113.164C70.31 113.336 71.7904 113.563 73.2692 113.76L75.4875 114.106C76.2268 114.223 76.9658 114.333 77.7046 114.465L79.9206 114.842C80.6591 114.966 81.3971 115.113 82.1352 115.246C83.6117 115.506 85.0861 115.81 86.561 116.098C87.2986 116.237 88.0347 116.407 88.7716 116.559C89.5081 116.718 90.2456 116.862 90.9813 117.032C92.453 117.367 93.926 117.687 95.3959 118.046C98.3411 118.71 101.274 119.494 104.218 120.225L107.543 121.105C108.655 121.419 109.768 121.737 110.866 122.067L109.516 124.772C109.32 124.58 109.125 124.388 108.931 124.197C108.731 124.012 108.536 123.825 108.335 123.645C108.131 123.469 107.935 123.284 107.728 123.115C107.535 122.93 107.351 122.737 107.154 122.559C105.853 121.327 104.486 120.175 103.063 119.112C101.633 118.035 100.16 117.004 98.6457 116.032C95.6164 114.084 92.4521 112.336 89.2743 110.558L89.2504 110.544C88.9139 110.356 88.6394 110.053 88.4804 109.695C88.3215 109.337 88.2894 108.949 88.3904 108.607C88.4915 108.264 88.7185 107.992 89.0271 107.844C89.3358 107.695 89.704 107.681 90.06 107.803C93.323 108.942 96.5297 110.343 99.6488 111.99C103.224 113.863 106.717 115.911 110.156 118.051C113.6 120.18 116.977 122.427 120.328 124.686L123.224 126.645L124.669 127.625L126.143 128.549C126.388 128.702 126.583 128.936 126.694 129.206C126.804 129.476 126.822 129.764 126.743 130.018C126.665 130.272 126.496 130.474 126.267 130.588C126.039 130.702 125.766 130.719 125.498 130.636L125.43 130.615C124.78 130.413 124.128 130.228 123.48 130.021L121.521 129.484L119.554 129.016C118.896 128.888 118.24 128.736 117.582 128.606C114.947 128.098 112.307 127.766 109.68 127.614C104.422 127.276 99.258 127.746 94.3538 129.01L94.328 129.017C94.086 129.081 93.8154 129.041 93.573 128.905C93.3305 128.769 93.1353 128.547 93.0282 128.286C92.9211 128.026 92.9106 127.746 92.9988 127.507C93.087 127.268 93.2671 127.087 93.5013 127.003C93.9367 126.848 94.368 126.681 94.8065 126.535C97.1586 125.72 99.5913 125.096 102.085 124.67C104.36 124.266 106.678 124.018 109.026 123.926C110.047 123.883 110.552 123.963 110.536 124.162C110.518 124.354 109.989 124.698 108.923 125.106C108.542 125.238 108.159 125.372 107.774 125.506C107.389 125.635 106.992 125.736 106.599 125.853C105.814 126.086 105.023 126.32 104.227 126.557C102.642 127.038 101.052 127.54 99.4904 128.079C97.9287 128.621 96.3241 129.112 94.7628 129.692L93.3011 126.252L94.9827 125.849C95.5444 125.721 96.1146 125.625 96.6776 125.509C96.68 125.49 96.6827 125.472 96.6872 125.452Z" fill="#7A7B75"/>
<path d="M120.586 75.4577C125.832 76.661 131.116 78.1858 136.269 80.4341C139.012 81.6308 141.692 83.0351 144.284 84.6344L144.639 84.8483L143.048 86.9387C138.834 82.0398 134.374 77.3874 129.519 73.2839C124.687 69.1461 119.404 65.6941 113.936 62.7158L115.579 59.7966C116.679 60.7282 117.779 61.6758 118.868 62.6687C119.411 63.1637 119.948 63.6699 120.466 64.159C120.984 64.6484 121.489 65.1207 122.005 65.5878C122.776 66.2865 123.57 66.9757 124.371 67.6626L124.992 68.1969C125.25 68.4226 125.465 68.6305 125.679 68.841C126.104 69.2587 126.489 69.6721 126.874 70.0916C127.635 70.931 128.363 71.7823 129.067 72.6799C129.823 73.6161 130.506 74.6096 131.106 75.6483C131.309 76.0085 131.404 76.4104 131.377 76.7955C131.35 77.1805 131.203 77.5285 130.957 77.7887C130.711 78.049 130.379 78.2079 130.01 78.2423C129.64 78.2766 129.252 78.1847 128.903 77.9798L128.88 77.9661C125.659 76.0533 122.388 74.254 119.089 72.5276C115.782 70.8233 112.444 69.2041 109.077 67.6697C107.387 66.9272 105.702 66.1644 104 65.4659C102.303 64.7465 100.587 64.102 98.8779 63.4315C95.4475 62.1413 91.9988 60.9439 88.5319 59.8393C87.1925 59.4363 85.8546 58.9777 84.5155 58.5497C83.8461 58.3329 83.1781 58.1166 82.5116 57.9009C81.8467 57.6745 81.1817 57.4652 80.52 57.2579C77.9884 56.4401 76.3691 55.6616 75.3819 54.8855C74.6634 54.3243 74.6949 53.9363 75.3722 53.775C76.0482 53.6203 77.3738 53.6648 79.2219 54.0429C79.8062 54.1649 80.4035 54.2979 81.0082 54.4395C81.6131 54.5795 82.2253 54.7298 82.8372 54.903C83.4494 55.0745 84.0632 55.2519 84.6736 55.4326L85.5856 55.7056C85.8873 55.804 86.1872 55.9018 86.4856 55.999C91.9772 57.7802 97.4213 59.7439 102.818 61.8904C108.216 64.0313 113.57 66.3466 118.88 68.8365C120.35 69.5093 121.834 70.2475 123.31 70.9759C124.046 71.3453 124.771 71.7385 125.488 72.1263C126.205 72.5178 126.912 72.9086 127.594 73.3245L130.225 74.8951L128.153 77.0525C127.773 76.3623 127.342 75.6983 126.865 75.0675C126.364 74.3895 125.825 73.7174 125.269 73.0638C124.713 72.4124 124.133 71.7702 123.557 71.1924C123.485 71.1174 123.415 71.0525 123.345 70.9846C123.274 70.9167 123.203 70.8468 123.14 70.7923C123.027 70.6882 122.84 70.5282 122.671 70.3828L121.648 69.4964C120.966 68.9019 120.283 68.2979 119.609 67.6771C118.932 67.0568 118.275 66.4259 117.637 65.8276C116.365 64.6319 115.046 63.4858 113.702 62.3346L113.675 62.3121C113.356 62.0386 113.129 61.6654 113.039 61.2647C112.95 60.864 113.003 60.4642 113.188 60.1427C113.374 59.8212 113.679 59.6008 114.045 59.5241C114.411 59.4475 114.811 59.52 115.168 59.7277C117.003 60.794 118.825 61.8921 120.593 63.0952C123.795 65.2411 126.899 67.5636 129.888 70.051C132.872 72.5393 135.724 75.2039 138.426 78.0281C140.68 80.3731 142.839 82.8018 144.93 85.2764L144.942 85.2904C145.151 85.5388 145.28 85.8441 145.304 86.1525C145.328 86.4608 145.247 86.7524 145.074 86.9756C144.902 87.1989 144.649 87.3394 144.361 87.3725C144.073 87.4056 143.768 87.329 143.499 87.1564C139.292 84.4462 134.717 82.4552 130.052 80.9369C125.381 79.4138 120.614 78.3398 115.829 77.4195L115.114 77.2797L115.082 77.2734C114.836 77.2252 114.603 77.0866 114.426 76.8838C114.249 76.681 114.141 76.428 114.123 76.1729C114.105 75.9177 114.177 75.6781 114.327 75.4993C114.476 75.3206 114.693 75.2151 114.934 75.203C116.141 75.1421 117.318 75.1616 118.475 75.2124C119.631 75.2621 120.765 75.3556 121.876 75.4742C122.986 75.5911 124.072 75.728 125.134 75.8848C126.194 76.0287 127.234 76.2341 128.243 76.3881C129.219 76.5451 129.69 76.6997 129.648 76.8918C129.604 77.073 129.044 77.3121 127.946 77.5026C127.558 77.5646 127.167 77.627 126.774 77.6898C126.38 77.74 125.979 77.7368 125.579 77.7601C124.779 77.7877 123.973 77.8155 123.162 77.8435C121.557 77.8854 119.936 77.9278 118.318 77.9701C117.376 78.0003 116.428 78.0242 115.511 78.0856L115.195 74.4351C116.971 74.758 118.769 75.1271 120.558 75.5052C120.567 75.49 120.576 75.4758 120.586 75.4577Z" fill="#7A7B75"/>
</g>
<defs>
<clipPath id="clip0_155_220">
<rect width="135.74" height="116.8" fill="white" transform="translate(92.377) rotate(52.2695)"/>
</clipPath>
</defs>
</svg>
