<svg width="560" height="192" viewBox="0 0 560 192" fill="none" xmlns="http://www.w3.org/2000/svg">
<path d="M313.558 31.0453C316.843 32.9311 320 35.0676 322.979 37.4642C325.951 39.8619 328.767 42.5143 331.279 45.4552C336.283 51.2712 340.347 57.839 343.519 64.8048C346.889 72.1944 349.205 80.0956 350.53 88.1463C350.954 90.8368 351.266 93.5509 351.429 96.2832C351.575 99.0168 351.584 101.764 351.437 104.513C351.285 107.262 350.941 110.008 350.435 112.731C350.294 113.409 350.183 114.094 350.017 114.768L349.526 116.792L348.947 118.796C348.764 119.467 348.509 120.118 348.292 120.779C348.176 121.108 348.071 121.44 347.946 121.766L347.56 122.739C347.302 123.386 347.048 124.045 346.767 124.648L345.944 126.498C345.66 127.11 345.361 127.715 345.069 128.324L344.629 129.236L344.162 130.135C343.847 130.733 343.542 131.335 343.22 131.929C342.556 133.105 341.908 134.292 341.193 135.438C340.509 136.604 339.751 137.724 339.016 138.859C338.24 139.965 337.483 141.085 336.657 142.155C335.036 144.317 333.31 146.403 331.46 148.37C329.614 150.34 327.679 152.229 325.627 153.979C323.576 155.729 321.432 157.366 319.205 158.874C314.75 161.893 309.939 164.345 304.936 166.236C299.924 168.105 294.712 169.378 289.434 170.065C284.153 170.732 278.81 170.806 273.519 170.319C260.49 169.082 247.801 164.408 236.94 156.84C231.511 153.057 226.537 148.56 222.196 143.475L221.384 142.521L220.588 141.522C220.049 140.862 219.545 140.172 219.044 139.481C218.037 138.101 217.113 136.659 216.225 135.195C214.475 132.249 212.99 129.14 211.765 125.934C209.296 119.521 207.97 112.709 207.549 105.902C207.156 99.0874 207.682 92.2628 208.978 85.6309C211.597 72.367 217.177 59.8254 225.17 49.1321C230.004 42.6861 236.02 37.0752 242.617 32.7723C245.787 30.724 248.636 29.4487 251.047 28.6891C252.248 28.2972 253.359 28.0684 254.342 27.8965C255.342 27.765 256.214 27.6813 256.997 27.7117C259.271 27.7857 259.48 28.6556 258.083 29.9495C257.908 30.1118 257.707 30.2785 257.483 30.4554C257.261 30.6395 257.015 30.8306 256.746 31.0278C256.476 31.2251 256.182 31.4283 255.865 31.6375C255.553 31.8594 255.218 32.0877 254.86 32.3217C253.432 33.2628 251.667 34.3627 249.645 35.7109C244.512 39.0889 239.314 43.4349 234.933 48.1692C229.872 53.5963 225.611 59.8689 222.284 66.6305C218.947 73.3874 216.535 80.6453 215.212 88.0884C214.54 91.8081 214.172 95.5762 214.074 99.3394C214.006 103.102 214.211 106.863 214.776 110.555C215.881 117.937 218.357 125.051 222.191 131.243C223.257 132.945 224.428 134.596 225.685 136.18C226.943 137.739 228.349 139.292 229.754 140.778C232.609 143.729 235.631 146.454 238.696 148.913C241.138 150.885 243.723 152.682 246.42 154.289C249.12 155.89 251.936 157.294 254.831 158.499C260.622 160.91 266.741 162.512 272.953 163.216C285.373 164.672 298.143 162.534 309.36 156.98C317.716 152.883 325.144 146.741 331.055 139.264C332.522 137.385 333.931 135.452 335.229 133.435C336.516 131.411 337.76 129.352 338.867 127.207L339.293 126.41L339.695 125.598L340.498 123.974L341.253 122.324L341.631 121.499L341.966 120.684C342.18 120.138 342.43 119.608 342.617 119.049L343.208 117.386C343.551 116.257 343.915 115.134 344.186 113.979C344.47 112.961 344.654 111.914 344.881 110.879L345.145 109.307L345.276 108.52L345.374 107.726C345.676 105.616 345.791 103.473 345.873 101.331C345.957 97.0404 345.68 92.7181 344.986 88.4511C344.671 86.3123 344.205 84.198 343.72 82.0898C343.184 79.9945 342.623 77.9017 341.928 75.8529C340.589 71.7376 338.899 67.7442 336.928 63.9105C332.965 56.2689 327.832 49.202 321.431 43.703C315.023 38.157 307.479 33.9795 299.527 31.13C293.167 28.8714 286.741 27.4391 280.487 26.7556C274.229 26.0737 268.142 26.1451 262.373 26.9404C261.712 27.041 261.124 27.0826 260.628 27.1324C260.131 27.1805 259.714 27.1921 259.379 27.1708C258.709 27.1281 258.367 26.9541 258.382 26.6747C258.396 26.3953 258.768 26.0099 259.523 25.5468C259.9 25.3157 260.371 25.0566 260.949 24.8274C261.527 24.5964 262.197 24.321 262.977 24.1008C265.178 23.4322 267.452 22.948 269.763 22.5561C272.076 22.1996 274.428 21.9723 276.797 21.8757C281.535 21.7158 286.334 22.0669 291.033 22.9215C298.78 24.2878 306.414 27.2355 313.447 31.1044C313.483 31.0834 313.517 31.0644 313.558 31.0453Z" fill="#7A7B75"/>
<path d="M236.321 78.8521C237.471 78.2526 238.628 77.6659 239.766 77.0476C240.367 76.7179 240.979 76.3969 241.508 75.961C242.908 74.8066 244.36 73.5317 246.081 72.3708C247.791 71.2203 249.841 70.158 252.232 69.7509C253.694 69.5188 255.206 69.4944 256.637 69.7337C258.068 69.9664 259.417 70.3984 260.662 70.9368C261.915 71.4727 263.046 72.1302 264.114 72.821C265.181 73.5137 266.177 74.2522 267.117 75.0054C267.69 75.458 268.09 76.1308 268.456 76.7882C268.811 77.421 268.569 78.3951 268.04 79.4752C267.263 81.0474 265.835 82.2169 264.895 81.9797C264.3 81.837 263.838 81.451 263.462 81.0174C262.595 80.0192 261.628 79.18 260.581 78.5599C259.537 77.9405 258.41 77.5447 257.319 77.461C256.71 77.4015 256.115 77.5403 255.661 77.2004C254.921 76.6732 254.069 76.5834 253.259 76.671C252.444 76.7651 251.631 77.0714 250.711 77.3113C249.327 77.6773 248.026 78.6157 246.597 79.4701C243.945 81.0845 241.294 82.6982 238.643 84.312C237.582 84.9613 236.334 85.2063 234.701 84.6541C233.948 84.3964 233.091 83.0772 233.342 82.4583C233.697 81.5798 234.183 80.8276 234.736 80.1815C235.19 79.6488 235.823 79.3471 236.376 78.9438C236.358 78.9129 236.341 78.8842 236.321 78.8521Z" fill="#7A7B75"/>
<path d="M318.999 81.7147C318.086 80.7248 317.139 79.7558 316.13 78.8561C315.595 78.3797 315.049 77.902 314.426 77.5651C312.768 76.6599 311.043 75.9073 309.303 75.2532C307.57 74.5964 305.958 74.1588 304.683 74.1202C304.29 74.1074 303.93 74.1314 303.596 74.1892C303.45 74.2255 303.356 74.264 303.224 74.2852C303.065 74.3575 302.913 74.4065 302.744 74.4744C302.04 74.7814 301.186 75.3259 300.352 75.9561C298.666 77.2215 296.982 78.8352 295.393 80.5427C294.915 81.0615 294.248 81.4138 293.593 81.7736C292.964 82.1135 292.024 81.8681 290.97 81.3242C289.433 80.5368 288.325 79.0319 288.691 77.9241C288.92 77.2281 289.404 76.6702 289.941 76.2232C291.178 75.1925 292.343 74.1128 293.495 72.9748C294.652 71.8375 295.777 70.6407 297.06 69.391C297.433 69.0523 297.769 68.67 298.213 68.3598C298.426 68.2023 298.647 68.0567 298.876 67.9336C299.123 67.8163 299.385 67.7243 299.649 67.6659C300.054 67.5654 300.524 67.4832 300.967 67.3913L301.3 67.3216C301.414 67.3001 301.544 67.2861 301.664 67.2682L302.397 67.1682C303.322 67.0724 304.178 67.0734 305.028 67.1299C306.715 67.2512 308.263 67.64 309.587 68.289C310.524 68.754 311.463 69.2202 312.403 69.6866C313.312 70.1436 314.213 70.6186 315.07 71.1693C318.133 73.1247 320.932 75.4411 323.496 77.9567C324.518 78.9604 325.172 80.2924 325.047 82.1404C324.99 82.9907 323.889 84.1006 323.234 83.9511C322.306 83.7338 321.465 83.3951 320.706 82.9809C320.08 82.6435 319.617 82.0802 319.068 81.634C319.045 81.6611 319.023 81.6863 318.999 81.7147Z" fill="#7A7B75"/>
<path d="M313.571 118.446C311.663 121.087 309.498 123.531 307.107 125.722C306.463 126.292 305.811 126.854 305.154 127.408L304.151 128.22L303.658 128.635L303.15 129.033C301.386 130.503 299.445 131.77 297.41 132.867C295.375 133.969 293.211 134.853 290.993 135.48C286.555 136.747 281.908 137.097 277.372 136.618C274.578 136.314 271.824 135.709 269.153 134.834C266.475 133.957 263.905 132.809 261.461 131.456C256.56 128.75 252.198 125.203 248.351 121.229C247.179 120.036 246.252 118.586 245.39 117.165C244.575 115.79 244.634 114.418 245.154 113.201C245.531 112.314 246.214 111.77 246.992 111.604C247.777 111.434 248.633 111.66 249.443 112.295C249.951 112.703 250.429 113.171 250.891 113.659C251.343 114.158 251.784 114.671 252.194 115.191C254.083 117.586 256.267 119.708 258.644 121.526C261.041 123.31 263.632 124.803 266.367 125.809C267.873 126.392 269.484 126.752 270.846 127.486C273.042 128.654 275.47 129.305 277.914 129.631C280.365 129.965 282.827 129.939 285.269 129.843C287.086 129.765 288.9 129.472 290.645 128.955C292.396 128.449 294.072 127.745 295.72 126.949C298.634 125.478 301.378 123.526 303.792 121.132C305.023 119.961 306.14 118.653 307.222 117.309C307.738 116.615 308.281 115.94 308.758 115.211C309.001 114.851 309.256 114.497 309.491 114.13L310.183 113.017C311.639 110.629 313.18 108.472 315.32 106.689C316.313 105.874 317.739 106.46 317.57 107.882C317.349 109.893 316.787 111.923 316.027 113.861C315.702 114.652 315.326 115.431 314.871 116.169L314.2 117.283C313.964 117.647 313.728 118.01 313.493 118.373C313.519 118.397 313.543 118.419 313.571 118.446Z" fill="#7A7B75"/>
<path d="M127.668 31.0453C130.987 32.9311 134.177 35.0676 137.186 37.4642C140.189 39.8619 143.034 42.5143 145.572 45.4552C150.628 51.2712 154.734 57.839 157.939 64.8048C161.344 72.1944 163.684 80.0956 165.023 88.1463C165.451 90.8368 165.766 93.5509 165.931 96.2832C166.078 99.0168 166.087 101.764 165.939 104.513C165.786 107.262 165.438 110.008 164.926 112.731C164.785 113.409 164.672 114.094 164.504 114.768L164.008 116.792L163.423 118.796C163.238 119.467 162.98 120.118 162.761 120.779C162.644 121.108 162.538 121.44 162.412 121.766L162.022 122.739C161.761 123.386 161.504 124.045 161.221 124.648L160.389 126.498C160.102 127.11 159.8 127.715 159.505 128.324L159.06 129.236L158.588 130.135C158.271 130.733 157.962 131.335 157.636 131.929C156.966 133.105 156.312 134.292 155.589 135.438C154.897 136.604 154.132 137.724 153.39 138.859C152.606 139.965 151.84 141.085 151.006 142.155C149.368 144.317 147.624 146.403 145.754 148.37C143.889 150.34 141.934 152.229 139.862 153.979C137.79 155.729 135.623 157.366 133.373 158.874C128.872 161.893 124.01 164.345 118.956 166.236C113.892 168.105 108.626 169.378 103.293 170.065C97.9574 170.732 92.5593 170.806 87.2137 170.319C74.05 169.082 61.229 164.408 50.2554 156.84C44.7698 153.057 39.7449 148.56 35.3589 143.475L34.5378 142.521L33.7337 141.522C33.1891 140.862 32.6804 140.172 32.1742 139.481C31.1568 138.101 30.2234 136.659 29.3254 135.195C27.558 132.249 26.0577 129.14 24.8191 125.934C22.3254 119.521 20.9857 112.709 20.5595 105.902C20.1631 99.0874 20.6939 92.2628 22.0039 85.6309C24.6495 72.367 30.2878 59.8254 38.3636 49.1321C43.2479 42.6861 49.3258 37.0752 55.9911 32.7723C59.1944 30.724 62.0722 29.4487 64.5084 28.6891C65.7224 28.2972 66.8441 28.0684 67.8376 27.8965C68.8482 27.765 69.729 27.6813 70.5204 27.7117C72.8175 27.7857 73.0287 28.6556 71.6174 29.9495C71.4408 30.1118 71.2378 30.2785 71.0113 30.4554C70.7874 30.6395 70.5388 30.8306 70.2662 31.0278C69.9936 31.2251 69.6968 31.4283 69.3765 31.6375C69.0613 31.8594 68.7228 32.0877 68.3613 32.3217C66.9179 33.2628 65.1349 34.3627 63.0919 35.7109C57.9063 39.0889 52.6538 43.4349 48.2279 48.1692C43.114 53.5963 38.8095 59.8689 35.448 66.6305C32.0757 73.3874 29.6385 80.6453 28.3026 88.0884C27.6234 91.8081 27.2517 95.5762 27.1523 99.3394C27.0838 103.102 27.2904 106.863 27.8616 110.555C28.9777 117.937 31.4794 125.051 35.3531 131.243C36.4307 132.945 37.614 134.596 38.8834 136.18C40.1544 137.739 41.5753 139.292 42.9953 140.778C45.8799 143.729 48.9329 146.454 52.0299 148.913C54.4968 150.885 57.1083 152.682 59.8338 154.289C62.5621 155.89 65.4067 157.294 68.332 158.499C74.1829 160.91 80.3656 162.512 86.6415 163.216C99.1907 164.672 112.092 162.534 123.426 156.98C131.869 152.883 139.373 146.741 145.345 139.264C146.828 137.385 148.251 135.452 149.563 133.435C150.863 131.411 152.12 129.352 153.239 127.207L153.669 126.41L154.075 125.598L154.887 123.974L155.65 122.324L156.031 121.499L156.37 120.684C156.586 120.138 156.839 119.608 157.028 119.049L157.625 117.386C157.972 116.257 158.339 115.134 158.613 113.979C158.899 112.961 159.086 111.914 159.315 110.879L159.582 109.307L159.714 108.52L159.813 107.726C160.118 105.616 160.234 103.473 160.317 101.331C160.402 97.0404 160.122 92.7181 159.421 88.4511C159.103 86.3123 158.632 84.198 158.142 82.0898C157.601 79.9945 157.034 77.9017 156.332 75.8529C154.978 71.7376 153.271 67.7442 151.279 63.9105C147.275 56.2689 142.089 49.202 135.622 43.703C129.147 38.157 121.525 33.9795 113.491 31.13C107.065 28.8714 100.572 27.4391 94.2533 26.7556C87.9313 26.0737 81.7803 26.1451 75.9523 26.9404C75.2844 27.041 74.6903 27.0826 74.1888 27.1324C73.6869 27.1805 73.2652 27.1921 72.9266 27.1708C72.2496 27.1281 71.9044 26.9541 71.9192 26.6747C71.934 26.3953 72.3096 26.0099 73.072 25.5468C73.4531 25.3157 73.9288 25.0566 74.5134 24.8274C75.0972 24.5964 75.7739 24.321 76.562 24.1008C78.786 23.4322 81.0838 22.948 83.4182 22.5561C85.7558 22.1996 88.132 21.9723 90.5259 21.8757C95.3123 21.7158 100.161 22.0669 104.909 22.9215C112.736 24.2878 120.449 27.2355 127.555 31.1044C127.592 31.0834 127.626 31.0644 127.668 31.0453Z" fill="#7A7B75"/>
<path d="M49.6303 78.8521C50.7915 78.2526 51.9609 77.6659 53.1103 77.0476C53.7183 76.7179 54.3364 76.3969 54.871 75.961C56.2857 74.8066 57.7521 73.5317 59.4912 72.3708C61.2187 71.2203 63.2899 70.158 65.706 69.7509C67.1833 69.5188 68.7105 69.4944 70.1568 69.7337C71.6027 69.9664 72.9652 70.3984 74.2236 70.9368C75.4889 71.4727 76.6319 72.1302 77.7105 72.821C78.7886 73.5137 79.7954 74.2522 80.7453 75.0054C81.3236 75.458 81.728 76.1308 82.0976 76.7882C82.4562 77.421 82.2117 78.3951 81.6774 79.4752C80.8926 81.0474 79.4495 82.2169 78.5001 81.9797C77.8986 81.837 77.4321 81.451 77.0524 81.0174C76.1764 80.0192 75.1988 79.18 74.141 78.5599C73.087 77.9405 71.9478 77.5447 70.8459 77.461C70.2301 77.4015 69.6289 77.5403 69.1708 77.2004C68.4224 76.6732 67.5617 76.5834 66.7438 76.671C65.9203 76.7651 65.0983 77.0714 64.1695 77.3113C62.7709 77.6773 61.4565 78.6157 60.0125 79.4701C57.3329 81.0845 54.6544 82.6982 51.9757 84.312C50.9042 84.9613 49.6429 85.2063 47.9933 84.6541C47.232 84.3964 46.366 83.0772 46.6202 82.4583C46.9784 81.5798 47.4699 80.8276 48.0288 80.1815C48.4874 79.6488 49.1265 79.3471 49.6857 78.9438C49.667 78.9129 49.6497 78.8842 49.6303 78.8521Z" fill="#7A7B75"/>
<path d="M133.165 81.7147C132.243 80.7248 131.286 79.7558 130.266 78.8561C129.725 78.3797 129.174 77.902 128.545 77.5651C126.869 76.6599 125.127 75.9073 123.368 75.2532C121.618 74.5964 119.989 74.1588 118.7 74.1202C118.303 74.1074 117.94 74.1314 117.602 74.1892C117.454 74.2255 117.359 74.264 117.226 74.2852C117.066 74.3575 116.912 74.4065 116.741 74.4744C116.03 74.7814 115.167 75.3259 114.325 75.9561C112.622 77.2215 110.92 78.8352 109.314 80.5427C108.832 81.0615 108.158 81.4138 107.496 81.7736C106.86 82.1135 105.91 81.8681 104.845 81.3242C103.292 80.5368 102.173 79.0319 102.543 77.9241C102.774 77.2281 103.264 76.6702 103.806 76.2232C105.055 75.1925 106.233 74.1128 107.396 72.9748C108.565 71.8375 109.702 70.6407 110.999 69.391C111.376 69.0523 111.715 68.67 112.163 68.3598C112.379 68.2023 112.602 68.0567 112.834 67.9336C113.083 67.8163 113.347 67.7243 113.614 67.6659C114.024 67.5654 114.498 67.4832 114.946 67.3913L115.282 67.3216C115.398 67.3001 115.529 67.2861 115.651 67.2682L116.391 67.1682C117.326 67.0724 118.19 67.0734 119.049 67.1299C120.753 67.2512 122.317 67.64 123.656 68.289C124.602 68.754 125.551 69.2202 126.501 69.6866C127.419 70.1436 128.33 70.6186 129.196 71.1693C132.29 73.1247 135.118 75.4411 137.708 77.9567C138.741 78.9604 139.402 80.2924 139.276 82.1404C139.218 82.9907 138.106 84.1006 137.444 83.9511C136.506 83.7338 135.657 83.3951 134.889 82.9809C134.258 82.6435 133.79 82.0802 133.235 81.634C133.211 81.6611 133.189 81.6863 133.165 81.7147Z" fill="#7A7B75"/>
<path d="M127.681 118.446C125.753 121.087 123.565 123.531 121.149 125.722C120.499 126.292 119.84 126.854 119.176 127.408L118.163 128.22L117.664 128.635L117.152 129.033C115.37 130.503 113.408 131.77 111.352 132.867C109.296 133.969 107.109 134.853 104.869 135.48C100.384 136.747 95.6895 137.097 91.106 136.618C88.2837 136.314 85.5009 135.709 82.8021 134.834C80.0966 133.957 77.5002 132.809 75.0303 131.456C70.0788 128.75 65.6711 125.203 61.7844 121.229C60.6009 120.036 59.6639 118.586 58.7932 117.165C57.9691 115.79 58.0286 114.418 58.554 113.201C58.9354 112.314 59.6252 111.77 60.4119 111.604C61.2051 111.434 62.0693 111.66 62.8879 112.295C63.4012 112.703 63.884 113.171 64.3509 113.659C64.8076 114.158 65.2529 114.671 65.6671 115.191C67.5763 117.586 69.7829 119.708 72.1845 121.526C74.6057 123.31 77.2236 124.803 79.9871 125.809C81.5093 126.392 83.1369 126.752 84.5123 127.486C86.7312 128.654 89.1851 129.305 91.654 129.631C94.1302 129.965 96.618 129.939 99.0852 129.843C100.921 129.765 102.754 129.472 104.517 128.955C106.286 128.449 107.979 127.745 109.644 126.949C112.589 125.478 115.361 123.526 117.8 121.132C119.044 119.961 120.172 118.653 121.266 117.309C121.787 116.615 122.335 115.94 122.817 115.211C123.063 114.851 123.321 114.497 123.558 114.13L124.258 113.017C125.728 110.629 127.286 108.472 129.448 106.689C130.451 105.874 131.892 106.46 131.721 107.882C131.498 109.893 130.93 111.923 130.162 113.861C129.834 114.652 129.453 115.431 128.994 116.169L128.316 117.283C128.077 117.647 127.839 118.01 127.601 118.373C127.628 118.397 127.652 118.419 127.681 118.446Z" fill="#7A7B75"/>
<path d="M500.148 31.0453C503.467 32.9311 506.657 35.0676 509.666 37.4642C512.669 39.8619 515.514 42.5143 518.053 45.4552C523.108 51.2712 527.214 57.839 530.419 64.8048C533.824 72.1944 536.164 80.0956 537.503 88.1463C537.932 90.8368 538.246 93.5509 538.411 96.2832C538.558 99.0168 538.568 101.764 538.419 104.513C538.266 107.262 537.918 110.008 537.407 112.731C537.265 113.409 537.152 114.094 536.984 114.768L536.489 116.792L535.903 118.796C535.718 119.467 535.46 120.118 535.241 120.779C535.125 121.108 535.018 121.44 534.892 121.766L534.502 122.739C534.241 123.386 533.985 124.045 533.701 124.648L532.869 126.498C532.583 127.11 532.28 127.715 531.986 128.324L531.541 129.236L531.068 130.135C530.751 130.733 530.442 131.335 530.117 131.929C529.446 133.105 528.792 134.292 528.069 135.438C527.378 136.604 526.612 137.724 525.87 138.859C525.086 139.965 524.32 141.085 523.486 142.155C521.848 144.317 520.104 146.403 518.235 148.37C516.37 150.34 514.415 152.229 512.342 153.979C510.27 155.729 508.104 157.366 505.853 158.874C501.352 161.893 496.491 164.345 491.437 166.236C486.373 168.105 481.106 169.378 475.773 170.065C470.438 170.732 465.04 170.806 459.694 170.319C446.53 169.082 433.709 164.408 422.736 156.84C417.25 153.057 412.225 148.56 407.839 143.475L407.018 142.521L406.214 141.522C405.669 140.862 405.161 140.172 404.654 139.481C403.637 138.101 402.704 136.659 401.806 135.195C400.038 132.249 398.538 129.14 397.299 125.934C394.806 119.521 393.466 112.709 393.04 105.902C392.643 99.0874 393.174 92.2628 394.484 85.6309C397.13 72.367 402.768 59.8254 410.844 49.1321C415.728 42.6861 421.806 37.0752 428.471 32.7723C431.675 30.724 434.552 29.4487 436.989 28.6891C438.203 28.2972 439.324 28.0684 440.318 27.8965C441.328 27.765 442.209 27.6813 443.001 27.7117C445.298 27.7857 445.509 28.6556 444.098 29.9495C443.921 30.1118 443.718 30.2785 443.492 30.4554C443.268 30.6395 443.019 30.8306 442.746 31.0278C442.474 31.2251 442.177 31.4283 441.857 31.6375C441.542 31.8594 441.203 32.0877 440.842 32.3217C439.398 33.2628 437.615 34.3627 435.572 35.7109C430.386 39.0889 425.134 43.4349 420.708 48.1692C415.594 53.5963 411.29 59.8689 407.928 66.6305C404.556 73.3874 402.119 80.6453 400.783 88.0884C400.104 91.8081 399.732 95.5762 399.633 99.3394C399.564 103.102 399.771 106.863 400.342 110.555C401.458 117.937 403.96 125.051 407.833 131.243C408.911 132.945 410.094 134.596 411.364 136.18C412.635 137.739 414.056 139.292 415.475 140.778C418.36 143.729 421.413 146.454 424.51 148.913C426.977 150.885 429.589 152.682 432.314 154.289C435.042 155.89 437.887 157.294 440.812 158.499C446.663 160.91 452.846 162.512 459.122 163.216C471.671 164.672 484.572 162.534 495.906 156.98C504.349 152.883 511.853 146.741 517.825 139.264C519.308 137.385 520.731 135.452 522.044 133.435C523.344 131.411 524.6 129.352 525.719 127.207L526.149 126.41L526.556 125.598L527.367 123.974L528.13 122.324L528.511 121.499L528.85 120.684C529.067 120.138 529.319 119.608 529.508 119.049L530.105 117.386C530.452 116.257 530.819 115.134 531.093 113.979C531.38 112.961 531.566 111.914 531.795 110.879L532.062 109.307L532.194 108.52L532.294 107.726C532.598 105.616 532.715 103.473 532.797 101.331C532.882 97.0404 532.602 92.7181 531.901 88.4511C531.583 86.3123 531.112 84.198 530.622 82.0898C530.081 79.9945 529.514 77.9017 528.812 75.8529C527.459 71.7376 525.751 67.7442 523.759 63.9105C519.755 56.2689 514.569 49.202 508.102 43.703C501.628 38.157 494.006 33.9795 485.971 31.13C479.545 28.8714 473.052 27.4391 466.734 26.7556C460.412 26.0737 454.261 26.1451 448.433 26.9404C447.765 27.041 447.171 27.0826 446.669 27.1324C446.167 27.1805 445.745 27.1921 445.407 27.1708C444.73 27.1281 444.385 26.9541 444.399 26.6747C444.414 26.3953 444.79 26.0099 445.552 25.5468C445.933 25.3157 446.409 25.0566 446.994 24.8274C447.577 24.5964 448.254 24.321 449.042 24.1008C451.266 23.4322 453.564 22.948 455.898 22.5561C458.236 22.1996 460.612 21.9723 463.006 21.8757C467.793 21.7158 472.641 22.0669 477.39 22.9215C485.216 24.2878 492.93 27.2355 500.036 31.1044C500.072 31.0834 500.106 31.0644 500.148 31.0453Z" fill="#7A7B75"/>
<path d="M422.111 78.8521C423.272 78.2526 424.441 77.6659 425.591 77.0476C426.199 76.7179 426.817 76.3969 427.351 75.961C428.766 74.8066 430.232 73.5317 431.971 72.3708C433.699 71.2203 435.77 70.158 438.186 69.7509C439.663 69.5188 441.191 69.4944 442.637 69.7337C444.083 69.9664 445.445 70.3984 446.704 70.9368C447.969 71.4727 449.112 72.1302 450.191 72.821C451.269 73.5137 452.276 74.2522 453.225 75.0054C453.804 75.458 454.208 76.1308 454.578 76.7882C454.936 77.421 454.692 78.3951 454.158 79.4752C453.373 81.0474 451.93 82.2169 450.98 81.9797C450.379 81.837 449.912 81.451 449.533 81.0174C448.657 80.0192 447.679 79.18 446.621 78.5599C445.567 77.9405 444.428 77.5447 443.326 77.461C442.71 77.4015 442.109 77.5403 441.651 77.2004C440.903 76.6732 440.042 76.5834 439.224 76.671C438.4 76.7651 437.579 77.0714 436.65 77.3113C435.251 77.6773 433.937 78.6157 432.493 79.4701C429.813 81.0845 427.135 82.6982 424.456 84.312C423.384 84.9613 422.123 85.2063 420.473 84.6541C419.712 84.3964 418.846 83.0772 419.1 82.4583C419.459 81.5798 419.95 80.8276 420.509 80.1815C420.968 79.6488 421.607 79.3471 422.166 78.9438C422.147 78.9129 422.13 78.8842 422.111 78.8521Z" fill="#7A7B75"/>
<path d="M505.645 81.7147C504.723 80.7248 503.766 79.7558 502.746 78.8561C502.206 78.3797 501.654 77.902 501.025 77.5651C499.349 76.6599 497.607 75.9073 495.848 75.2532C494.098 74.5964 492.469 74.1588 491.18 74.1202C490.784 74.1074 490.42 74.1314 490.082 74.1892C489.935 74.2255 489.84 74.264 489.706 74.2852C489.546 74.3575 489.392 74.4065 489.221 74.4744C488.51 74.7814 487.647 75.3259 486.805 75.9561C485.102 77.2215 483.4 78.8352 481.795 80.5427C481.312 81.0615 480.638 81.4138 479.976 81.7736C479.34 82.1135 478.39 81.8681 477.325 81.3242C475.773 80.5368 474.653 79.0319 475.023 77.9241C475.255 77.2281 475.744 76.6702 476.286 76.2232C477.535 75.1925 478.713 74.1128 479.877 72.9748C481.046 71.8375 482.182 70.6407 483.479 69.391C483.856 69.0523 484.195 68.67 484.643 68.3598C484.859 68.2023 485.082 68.0567 485.314 67.9336C485.563 67.8163 485.827 67.7243 486.095 67.6659C486.504 67.5654 486.978 67.4832 487.427 67.3913L487.762 67.3216C487.878 67.3001 488.009 67.2861 488.131 67.2682L488.871 67.1682C489.806 67.0724 490.67 67.0734 491.529 67.1299C493.234 67.2512 494.797 67.64 496.136 68.289C497.082 68.754 498.031 69.2202 498.981 69.6866C499.899 70.1436 500.81 70.6186 501.676 71.1693C504.77 73.1247 507.599 75.4411 510.188 77.9567C511.221 78.9604 511.882 80.2924 511.756 82.1404C511.698 82.9907 510.586 84.1006 509.924 83.9511C508.986 83.7338 508.137 83.3951 507.37 82.9809C506.738 82.6435 506.27 82.0802 505.715 81.634C505.691 81.6611 505.67 81.6863 505.645 81.7147Z" fill="#7A7B75"/>
<path d="M500.161 118.446C498.233 121.087 496.045 123.531 493.63 125.722C492.979 126.292 492.32 126.854 491.657 127.408L490.643 128.22L490.144 128.635L489.632 129.033C487.85 130.503 485.888 131.77 483.832 132.867C481.776 133.969 479.589 134.853 477.349 135.48C472.864 136.747 468.17 137.097 463.586 136.618C460.764 136.314 457.981 135.709 455.282 134.834C452.577 133.957 449.98 132.809 447.511 131.456C442.559 128.75 438.151 125.203 434.265 121.229C433.081 120.036 432.144 118.586 431.273 117.165C430.449 115.79 430.509 114.418 431.034 113.201C431.416 112.314 432.105 111.77 432.892 111.604C433.685 111.434 434.55 111.66 435.368 112.295C435.881 112.703 436.364 113.171 436.831 113.659C437.288 114.158 437.733 114.671 438.147 115.191C440.056 117.586 442.263 119.708 444.665 121.526C447.086 123.31 449.704 124.803 452.467 125.809C453.989 126.392 455.617 126.752 456.993 127.486C459.211 128.654 461.665 129.305 464.134 129.631C466.61 129.965 469.098 129.939 471.565 129.843C473.401 129.765 475.234 129.472 476.997 128.955C478.766 128.449 480.459 127.745 482.124 126.949C485.069 125.478 487.841 123.526 490.281 121.132C491.524 119.961 492.652 118.653 493.746 117.309C494.267 116.615 494.815 115.94 495.298 115.211C495.543 114.851 495.801 114.497 496.038 114.13L496.738 113.017C498.209 110.629 499.766 108.472 501.928 106.689C502.931 105.874 504.372 106.46 504.201 107.882C503.978 109.893 503.41 111.923 502.642 113.861C502.314 114.652 501.933 115.431 501.474 116.169L500.796 117.283C500.558 117.647 500.319 118.01 500.082 118.373C500.108 118.397 500.132 118.419 500.161 118.446Z" fill="#7A7B75"/>
</svg>
