<svg width="265" height="265" viewBox="0 0 265 265" fill="none" xmlns="http://www.w3.org/2000/svg">
<g id="arrow, hand drawn, scribble, doodle, thick, arrows, down, 53" clip-path="url(#clip0_28_100)">
<path id="Vector" d="M85.0894 78.2304L83.9203 80.2382L82.854 82.3015C82.6685 82.6423 82.508 82.9944 82.351 83.3483L81.8709 84.4067C81.7149 84.7613 81.5406 85.1089 81.3987 85.4696L80.9735 86.5523C79.8421 89.4404 78.912 92.4247 78.2941 95.4945C77.6194 98.7428 77.1967 102.081 77.1112 105.427C77.1037 106.73 77.0675 108.03 77.1321 109.335C77.1557 109.987 77.1671 110.639 77.2002 111.291L77.3372 113.247C77.4056 114.551 77.5849 115.854 77.7111 117.156C77.8583 118.458 78.0651 119.757 78.2385 121.057L74.3798 119.116C75.9942 118.215 77.6696 117.31 79.4196 116.5C81.1668 115.688 82.9424 114.986 84.696 114.338C86.1229 113.811 87.7071 114.54 88.2343 115.967C88.5236 116.75 88.4345 117.581 88.0593 118.258L88.019 118.33C85.7873 122.312 83.8806 126.449 82.4155 130.716C80.9485 134.981 79.9292 139.375 79.4222 143.824L79.3351 144.568L79.3333 144.583C79.138 146.252 77.6265 147.447 75.9574 147.251C75.1974 147.163 74.5325 146.797 74.0556 146.272C70.6435 142.504 67.0832 138.785 63.5839 134.947C60.0867 131.107 56.6278 127.159 53.462 122.865C52.4453 121.486 52.739 119.543 54.1182 118.526C55.0027 117.874 56.1189 117.761 57.074 118.128L57.1043 118.14C58.7798 118.798 60.4459 119.468 62.0091 119.982C62.7904 120.237 63.5416 120.452 64.2532 120.586C64.9675 120.722 65.6501 120.79 66.3615 120.793L63.3174 124.467C62.5309 120.274 61.7189 116.044 61.0401 111.75C60.3572 107.459 59.8222 103.092 59.6282 98.6578C59.4657 95.104 59.7508 91.4702 60.3447 87.9756C60.5018 87.1395 60.6557 86.3811 60.8792 85.704C61.106 85.0272 61.3492 84.4269 61.6045 83.8978C61.6709 83.7663 61.7355 83.6385 61.7982 83.5142C61.8729 83.3757 61.9454 83.2412 62.0159 83.1104C62.1746 82.8249 62.3365 82.5696 62.4977 82.3443C62.8206 81.8934 63.139 81.5641 63.4351 81.3352C64.2994 80.6783 64.7411 81.3198 65.1792 82.2746C65.3898 82.7564 65.5982 83.3044 65.7055 83.8546C65.7185 83.9239 65.7298 83.9936 65.739 84.064C65.7457 84.1663 65.7525 84.2714 65.7594 84.3793C65.7703 84.5979 65.776 84.826 65.7762 85.0635C65.7765 85.5383 65.7549 86.05 65.7087 86.5973C65.5506 89.3811 65.3623 92.4047 65.2917 95.3059L65.2636 97.0484L65.2988 98.7971C65.304 99.3798 65.3345 99.9642 65.3697 100.549L65.4731 102.303C65.6622 104.644 65.9116 106.988 66.2598 109.333C66.9304 114.023 67.88 118.712 68.8457 123.426C69.1218 124.774 68.2529 126.091 66.905 126.367C66.7541 126.398 66.6035 126.414 66.4548 126.417L66.3667 126.418C65.3039 126.434 64.216 126.342 63.1791 126.162C62.1383 125.983 61.1604 125.72 60.2263 125.44C58.3601 124.872 56.6487 124.235 54.9355 123.628L58.217 119.371L59.3057 120.719C61.6698 123.578 64.3745 126.383 66.6763 129.245C70.3118 133.765 74.3348 138.048 78.2952 142.474L73.6753 143.965C74.0209 140.842 74.5807 137.742 75.3619 134.705C76.1552 131.672 77.174 128.706 78.3964 125.843C79.1511 124.106 79.953 122.392 80.8023 120.703C81.6628 119.021 82.5676 117.363 83.515 115.729L86.4371 119.239C84.7499 119.829 83.1066 120.451 81.5184 121.16C79.9294 121.864 78.3651 122.673 76.7705 123.525L76.7087 123.558C75.5654 124.168 74.1437 123.736 73.5334 122.593C73.3932 122.33 73.3076 122.045 73.2734 121.766L72.9957 119.44L72.8596 118.278L72.7607 117.109C72.6896 116.151 72.5873 115.197 72.5434 114.235L72.4109 111.351L72.3859 108.459C72.3785 107.496 72.4362 106.529 72.459 105.565C72.6244 101.706 73.0739 97.8465 73.8732 94.0511C74.6703 90.2563 75.8206 86.5295 77.3254 82.9556C78.8276 79.3804 80.682 75.9625 82.8166 72.7483L84.6108 75.41C83.8865 75.5472 83.1601 75.6782 82.4416 75.8338C79.4322 76.4573 76.5585 77.1816 73.7891 77.9686C71.0173 78.7446 68.3407 79.5715 65.7275 80.2476C65.1372 80.3949 64.6068 80.4702 64.1814 80.4907C63.7585 80.5088 63.4513 80.4636 63.3319 80.3002C63.2138 80.1389 63.2797 79.848 63.644 79.4184C63.8261 79.2054 64.0851 78.9606 64.4264 78.706C64.5566 78.6092 64.6967 78.5051 64.8467 78.3936C64.9761 78.2999 65.1167 78.2045 65.2684 78.1078C66.9879 77.0146 68.8114 75.9608 70.7391 75.0134C72.6654 74.0659 74.6906 73.2231 76.7557 72.5181C79.0113 71.7553 81.3688 71.2116 83.7171 70.778C85.3373 70.4789 86.8933 71.5498 87.1924 73.17C87.3332 73.9323 87.1706 74.6804 86.7903 75.29L86.7751 75.3144L85.8871 76.732C85.5981 77.2079 85.2811 77.6684 85.0272 78.1615C85.0472 78.1837 85.0661 78.2045 85.0894 78.2304Z" fill="#7A7B75"/>
<path id="Vector_2" d="M123.281 132.718C124.461 139.608 125.821 146.439 127.691 153.111C128.698 156.638 129.816 160.151 131.244 163.495C131.514 164.126 131.81 164.742 132.091 165.366L132.519 166.299C132.656 166.612 132.805 166.919 132.966 167.218C133.6 168.421 134.182 169.658 134.893 170.804C135.236 171.385 135.57 171.973 135.92 172.549L137.04 174.216L137.599 175.05L138.21 175.835L139.429 177.405L135.459 177.3C136.051 176.635 136.616 175.984 137.108 175.345C137.602 174.703 138.033 174.067 138.446 173.355C139.272 171.935 140.057 170.299 140.848 168.673C141.511 167.311 143.153 166.744 144.515 167.407C145.342 167.809 145.875 168.571 146.02 169.412L146.033 169.492C146.823 174.292 147.612 179.089 148.81 183.615C149.416 185.878 150.149 188.064 151.023 190.237C151.893 192.41 152.9 194.58 153.941 196.766C154.656 198.268 154.019 200.065 152.517 200.78C151.915 201.067 151.266 201.136 150.658 201.019L150.645 201.017C149.792 200.854 148.937 200.694 148.087 200.517C142.764 199.427 137.492 198.084 132.282 196.366C129.68 195.495 127.095 194.527 124.544 193.402C121.995 192.273 119.472 190.999 117.041 189.405C115.609 188.467 115.209 186.544 116.148 185.112C116.756 184.183 117.779 183.688 118.813 183.711L118.83 183.712C120.477 183.754 122.052 183.699 123.535 183.462C125.02 183.229 126.423 182.803 127.808 182.183L126.682 186.984C123.397 182.989 120.049 178.976 116.827 174.801C113.612 170.621 110.536 166.255 107.84 161.589C105.927 158.248 104.409 154.605 103.299 150.928C102.738 149.177 102.574 147.635 102.54 146.374C102.54 146.216 102.539 146.062 102.538 145.912C102.538 145.748 102.54 145.533 102.549 145.358C102.565 144.991 102.601 144.654 102.652 144.353C102.754 143.748 102.91 143.286 103.078 142.952C103.575 141.991 104.137 142.587 104.99 143.371C105.405 143.773 105.886 144.183 106.23 144.598C106.272 144.651 106.313 144.705 106.351 144.761L106.408 144.849C106.435 144.9 106.463 144.951 106.491 145.003C106.601 145.211 106.711 145.431 106.82 145.661C107.038 146.123 107.253 146.631 107.462 147.183C108.602 149.959 109.872 152.969 111.221 155.796C113.664 160.797 116.748 165.546 120.176 170.078C123.586 174.626 127.319 178.982 131.075 183.37C131.99 184.439 131.865 186.047 130.796 186.961C130.623 187.109 130.436 187.23 130.24 187.324L130.137 187.372C128.411 188.187 126.533 188.809 124.633 189.169C122.732 189.534 120.842 189.655 119.024 189.678C118.909 189.68 118.794 189.681 118.676 189.683L120.329 184.42C123.518 186.315 127.215 187.797 130.673 189.298C133.977 190.741 137.439 191.935 140.97 192.928C144.5 193.927 148.096 194.752 151.705 195.443L148.807 199.181C147.653 196.726 146.515 194.218 145.526 191.6C144.527 188.986 143.752 186.256 143.164 183.55C142.215 179.086 141.564 174.671 140.911 170.258L145.484 170.98C144.65 172.622 143.838 174.276 142.811 175.985C142.299 176.838 141.698 177.697 141.068 178.483C140.437 179.273 139.791 179.987 139.157 180.674L139.078 180.76C138.22 181.691 136.769 181.75 135.838 180.891C135.736 180.797 135.638 180.686 135.557 180.579L134.15 178.698C133.92 178.382 133.673 178.075 133.459 177.75L132.831 176.77C130.433 173.077 128.532 169.157 126.913 165.169C125.292 161.177 124 157.096 122.853 152.995C120.572 144.786 118.988 136.459 117.575 128.158L120.623 128.916L120.149 129.484C115.72 134.843 110.507 139.076 105.15 141.394C104.535 141.658 104.033 141.765 103.674 141.755C103.584 141.752 103.503 141.742 103.431 141.725C103.347 141.722 103.351 141.635 103.113 141.752C102.937 141.834 102.82 141.921 102.74 141.948C102.698 141.967 102.673 141.958 102.65 141.944C102.623 141.938 102.607 141.91 102.606 141.86C102.602 141.768 102.65 141.579 102.841 141.354C102.887 141.3 102.946 141.243 103.003 141.193C103.005 141.178 103.006 141.162 103.008 141.145C103.013 141.112 103.019 141.078 103.028 141.043C103.064 140.906 103.137 140.749 103.251 140.573C103.477 140.226 103.859 139.804 104.411 139.327C107.529 136.589 110.598 133.475 113.403 130.201C114.595 128.836 115.761 127.42 116.928 125.996L116.971 125.945C118.014 124.672 119.891 124.486 121.164 125.529C121.734 125.997 122.087 126.636 122.208 127.31C122.53 129.11 122.841 130.918 123.189 132.702C123.218 132.707 123.246 132.712 123.281 132.718Z" fill="#7A7B75"/>
<path id="Vector_3" d="M171.49 131.457C175.329 136.584 179.259 141.567 183.626 146.092C185.949 148.474 188.401 150.742 191.054 152.688L192.399 153.658C192.852 153.973 193.322 154.26 193.782 154.563C194.248 154.855 194.699 155.175 195.176 155.445L196.604 156.26L197.318 156.669C197.559 156.797 197.807 156.913 198.05 157.035L199.518 157.762C200 158.021 200.515 158.199 201.013 158.419L202.517 159.051L199.011 160.916C199.11 160.404 199.176 159.747 199.217 159.079C199.259 158.406 199.279 157.703 199.291 156.989C199.318 155.551 199.296 154.098 199.351 152.505C199.403 151.016 200.652 149.851 202.14 149.902C202.9 149.929 203.575 150.266 204.047 150.788L204.106 150.854C207.2 154.295 210.344 157.561 213.805 160.411C217.256 163.277 221.044 165.818 224.942 168.3C226.341 169.19 226.753 171.045 225.863 172.444C225.454 173.086 224.841 173.521 224.162 173.716L224.113 173.73C222.855 174.09 221.593 174.463 220.326 174.849C215.823 176.223 211.255 177.708 206.507 178.898C201.757 180.064 196.798 180.976 191.604 180.879C189.895 180.848 188.535 179.436 188.567 177.727C188.582 176.897 188.923 176.149 189.465 175.603L189.487 175.581C190.73 174.334 192.009 173.134 193.087 171.999C194.171 170.858 194.991 169.791 195.693 168.501L197.287 172.882C192.815 171.133 188.341 169.303 183.921 167.272C179.508 165.224 175.151 162.968 170.969 160.424C167.986 158.626 165.181 156.494 162.546 154.318C161.274 153.285 160.355 152.272 159.672 151.361C158.928 150.367 158.502 149.49 158.317 148.74C158.049 147.647 158.635 147.209 159.655 147.244C160.167 147.264 160.788 147.403 161.479 147.666C162.13 147.909 163.019 148.366 163.968 148.961C166.379 150.464 168.898 152.233 171.313 153.865C173.459 155.327 175.655 156.713 177.915 157.991C179.035 158.647 180.189 159.246 181.333 159.862C182.494 160.448 183.648 161.046 184.83 161.596C189.529 163.845 194.413 165.767 199.354 167.579C200.672 168.063 201.348 169.523 200.865 170.841C200.83 170.937 200.789 171.029 200.744 171.118L200.684 171.234C199.887 172.778 198.825 174.29 197.706 175.564C196.59 176.846 195.486 177.952 194.444 179.062C194.206 179.316 193.968 179.57 193.726 179.829L191.748 174.88C194.907 174.794 198.173 174.245 201.329 173.792C204.838 173.291 208.362 172.425 211.89 171.417C215.42 170.416 218.966 169.282 222.609 168.27L221.876 173.062C218.175 170.669 214.475 168.159 211.053 165.212C209.094 163.524 207.208 161.738 205.415 159.893C203.618 158.048 201.911 156.149 200.247 154.236L204.476 152.767C204.406 154.134 204.4 155.63 204.346 157.139C204.32 157.898 204.284 158.666 204.219 159.459C204.151 160.255 204.067 161.062 203.869 161.977L203.849 162.068C203.581 163.303 202.363 164.087 201.128 163.819C200.976 163.786 200.819 163.733 200.681 163.672L198.387 162.648C194.77 160.942 191.393 158.806 188.268 156.405C185.141 154.002 182.261 151.338 179.562 148.541C174.164 142.937 169.481 136.821 164.876 130.746L167.841 130.341L167.405 131.356C164.91 137.119 161.933 142.285 158.472 146.358C158.157 146.726 157.863 146.992 157.616 147.136C157.596 147.148 157.586 147.17 157.589 147.191L157.633 147.503C157.766 148.441 157.491 148.964 156.529 148.238C156.456 148.183 156.418 148.099 156.419 148.013L156.446 146.51C156.454 146.109 156.584 145.564 156.85 144.892C158.303 141.272 159.825 137.478 161.34 133.703C162.022 131.992 162.757 130.276 163.482 128.55L163.498 128.513C164.134 126.999 165.877 126.288 167.391 126.924C167.88 127.129 168.292 127.461 168.595 127.852C169.53 129.067 170.457 130.296 171.402 131.488C171.43 131.478 171.457 131.469 171.49 131.457Z" fill="#7A7B75"/>
</g>
<defs>
<clipPath id="clip0_28_100">
<rect width="195" height="195" fill="white" transform="translate(0 92.9569) rotate(-28.4702)"/>
</clipPath>
</defs>
</svg>
