<svg width="114" height="117" viewBox="0 0 114 117" fill="none" xmlns="http://www.w3.org/2000/svg">
<g clip-path="url(#clip0_28_113)">
<path d="M71.4128 61.0581C69.5053 59.7264 67.5463 58.4789 65.5351 57.3366C64.9991 57.0409 64.467 56.7309 63.9242 56.4472C63.3803 56.1661 62.8352 55.8882 62.2887 55.6187C59.3562 54.2271 56.3586 53.0295 53.315 52.0333C50.2747 51.048 47.1982 50.2498 44.1021 49.6427C40.2941 48.9029 36.4655 48.4639 32.6494 48.3294C31.6955 48.2805 30.7464 48.2966 29.7952 48.2814C29.3206 48.2846 28.847 48.2992 28.3729 48.3073L27.662 48.3216L26.9538 48.3574L25.5378 48.4321L24.1284 48.5487C23.6575 48.5813 23.1911 48.6383 22.7241 48.6925C22.2578 48.7497 21.7884 48.7919 21.3247 48.8613C20.765 48.9444 20.1984 49.0077 19.6303 49.0603C19.0654 49.1265 18.5011 49.1904 17.9406 49.2484C17.4882 49.3041 17.0271 49.3101 16.5645 49.2664C16.233 49.2324 15.9043 49.1375 15.5934 48.9861C14.8229 48.5951 15.2785 47.9023 16.7714 47.4509C17.2421 47.3064 17.7494 47.2086 18.2604 47.1085C18.5163 47.0603 18.7742 47.0157 19.0315 46.974C19.2901 46.9384 19.5489 46.9096 19.804 46.8812C22.1507 46.609 24.5057 46.4243 26.8691 46.3271C29.2327 46.2283 31.6058 46.2162 33.9886 46.2908C34.6464 46.3217 35.318 46.3375 35.986 46.3838C36.654 46.4406 37.3182 46.5112 37.9586 46.6162C40.0031 46.9916 42.0472 47.3433 44.0871 47.774C44.597 47.8802 45.1052 48.0037 45.6143 48.1175L46.3773 48.2921L47.1373 48.4892C47.6434 48.6236 48.1508 48.7485 48.6545 48.8948L50.1617 49.3502C53.1487 50.2717 56.1 51.3641 59.0018 52.6222C64.1584 54.8971 69.1135 57.7431 73.7767 61.1084C75.5087 62.3432 77.1136 63.7777 78.5574 65.3815C79.1651 66.042 78.9777 66.1907 78.121 65.6475L77.6657 65.3553C77.5143 65.2559 77.3666 65.15 77.2162 65.0466C76.9195 64.8342 76.6072 64.6397 76.3012 64.4335L75.3782 63.8164C75.0759 63.6011 74.7667 63.3957 74.4628 63.1832C73.4673 62.4782 72.4529 61.7424 71.4337 61.0431L71.4128 61.0581Z" fill="#7A7B75"/>
<path d="M26.8251 36.5357C26.9326 35.7538 27.0979 34.9876 27.3195 34.2435C27.5484 33.5063 27.8335 32.7945 28.172 32.1145C28.539 31.4005 28.9557 30.7193 29.4191 30.0759C30.4188 28.639 31.6998 27.453 33.1878 26.5865C34.6831 25.7068 36.3613 25.1719 38.1221 25.0138L38.1403 25.0122C38.3791 24.9921 38.6251 25.0572 38.8394 25.1973C39.0537 25.3374 39.2242 25.5444 39.3239 25.7857C39.4799 26.1639 39.6392 26.5415 39.7624 26.9295L39.8604 27.2188L39.9429 27.5115C39.9945 27.7072 40.0586 27.901 40.0973 28.0986C40.7623 30.912 40.5202 33.7894 39.4103 36.2629L39.3079 36.4933L39.1922 36.7162C39.1137 36.8639 39.0399 37.0146 38.9568 37.159C38.7832 37.4427 38.6164 37.7314 38.4194 37.9955C38.2355 38.2707 38.0227 38.5195 37.8172 38.7743C37.7108 38.898 37.5976 39.015 37.4879 39.1353L37.3217 39.3139L37.1458 39.4816C36.2138 40.3794 35.135 41.0983 33.9509 41.6104C33.2357 41.9094 32.4736 42.0947 31.6876 42.1606C31.3756 42.1978 31.054 42.1724 30.7396 42.0856C30.5111 42.0192 30.2949 41.9007 30.1069 41.739C30.0568 41.7045 30.0135 41.6595 29.98 41.6072C29.9465 41.5549 29.9236 41.4966 29.913 41.4364C29.9024 41.3762 29.9043 41.3155 29.9186 41.2586C29.9329 41.2017 29.9592 41.15 29.9957 41.1072C30.1383 40.9087 30.4388 40.7489 30.8696 40.6211C31.4136 40.455 32.0085 40.3094 32.5628 40.126C33.2036 39.9185 33.8126 39.6321 34.378 39.2722C34.9458 38.916 35.4654 38.4869 35.9264 37.9937C36.8469 37.0242 37.5064 35.8098 37.8479 34.4556C38.0346 33.715 38.1032 32.9186 38.2327 32.1908C38.3966 31.2675 38.3987 30.3049 38.2389 29.3484C38.0821 28.3958 37.8002 27.4585 37.4012 26.564L38.4739 27.2529C37.9791 27.3028 37.4839 27.3554 36.9979 27.4555C35.3115 27.7709 33.7681 28.6162 32.4647 29.714C31.2908 30.6987 30.3493 31.9509 29.7004 33.3904C29.0464 34.8508 28.695 36.4645 28.6673 38.1339C28.6619 38.8082 28.6567 39.4629 28.6516 40.091C28.6431 40.2514 28.651 40.4095 28.6454 40.5684C28.642 40.727 28.6234 40.8873 28.6231 41.0445C28.6215 41.3586 28.574 41.6804 28.5765 41.9911C28.5689 42.2785 28.5058 42.4342 28.384 42.4457C28.265 42.4564 28.0775 42.3249 27.8529 42.0243C27.774 41.9179 27.6928 41.8097 27.619 41.6982C27.5584 41.5845 27.5044 41.4676 27.4574 41.348C27.3532 41.11 27.263 40.8666 27.1876 40.6194C27.1079 40.3713 27.0536 40.1186 26.9969 39.8645C26.9356 39.6103 26.8989 39.3542 26.8608 39.0976C26.7631 38.2418 26.7626 37.3865 26.8594 36.5501C26.8481 36.5453 26.8375 36.5409 26.8251 36.5357Z" fill="#7A7B75"/>
<path d="M53.5389 41.9235C54.847 41.9168 56.1188 41.6506 57.2881 41.1384C57.9274 40.8669 58.5296 40.5192 59.0838 40.1014C60.2713 39.1723 61.3087 38.055 62.1642 36.7836C63.031 35.5084 63.7559 34.1257 64.3263 32.6591L65.307 34.1057C64.9113 34.1054 64.515 34.0944 64.1222 34.1029L62.9475 34.133C62.6402 34.142 62.3356 34.153 62.0307 34.1699C61.7279 34.1917 61.4233 34.2081 61.1231 34.2357C60.5195 34.2824 59.9241 34.3501 59.3343 34.4304C58.7445 34.5107 58.1659 34.6191 57.594 34.7412C57.026 34.8729 56.4662 35.0221 55.9229 35.2049C55.3851 35.3837 54.8616 35.5989 54.3557 35.8492C54.2281 35.9076 54.1047 35.9735 53.9832 36.0429C53.8613 36.1114 53.7369 36.1757 53.6169 36.2471C53.3815 36.3969 53.1393 36.5365 52.9161 36.7027C52.6841 36.8572 52.4694 37.0331 52.252 37.2052C52.1419 37.2896 52.0441 37.3879 51.9394 37.4781C51.8368 37.5708 51.7299 37.6586 51.6344 37.758C51.2374 38.1347 50.8741 38.5485 50.5481 38.9951C50.1504 39.5206 49.7861 40.0744 49.4573 40.6534C49.3264 40.9018 49.1604 41.1256 48.9641 41.3178C48.8004 41.4811 48.6074 41.6096 48.3943 41.6973C48.0932 41.8203 47.8236 41.756 47.6467 41.4982C47.5454 41.338 47.4807 41.1579 47.458 40.9734C47.4379 40.8547 47.4325 40.7352 47.4421 40.618C47.4503 40.4806 47.4668 40.3448 47.4916 40.2114C47.657 39.4665 47.9579 38.7747 48.3787 38.1721C49.3058 36.8323 50.4713 35.7025 51.8197 34.8365C52.4772 34.4061 53.1664 34.0263 53.8823 33.7C54.5956 33.3819 55.3298 33.1094 56.0812 32.8839C56.8958 32.6068 57.7482 32.4362 58.6205 32.3754C59.7247 32.3362 60.8141 32.2995 61.8987 32.2833L65.1263 32.2148C65.2692 32.2118 65.414 32.2477 65.5468 32.3189C65.6796 32.3902 65.7959 32.4945 65.8847 32.6218C65.9736 32.7492 66.0319 32.8954 66.0541 33.0464C66.0764 33.1974 66.0618 33.3482 66.0118 33.4844L66.0029 33.5078C65.9163 33.74 65.8256 33.97 65.731 34.1979C65.6328 34.4238 65.5281 34.6459 65.4201 34.8656C64.5217 36.6693 63.4516 38.3882 62.0759 39.8347C60.8504 41.1408 59.39 42.1819 57.7641 42.9084C57.3538 43.0875 56.9326 43.2424 56.5022 43.3724C56.0694 43.4969 55.6281 43.5954 55.1802 43.6674C54.2855 43.8131 53.3671 43.8443 52.4446 43.7603C51.7306 43.704 51.0194 43.5185 50.3426 43.2119C50.0263 43.0644 49.7207 42.888 49.4296 42.6851C49.2896 42.5875 49.1544 42.4818 49.0246 42.3686C48.896 42.2642 48.7725 42.1526 48.6548 42.0343C48.4417 41.8177 48.3743 41.6627 48.4417 41.5636C48.4928 41.5052 48.5623 41.4678 48.6398 41.4571C48.6951 41.4452 48.7517 41.4379 48.809 41.4353C48.8773 41.4281 48.9474 41.4327 49.0165 41.4487C49.4336 41.5368 49.8506 41.6006 50.2606 41.675L50.5688 41.7247L50.8783 41.7601C51.082 41.7947 51.2889 41.8086 51.4917 41.839C52.1748 41.9315 52.8586 41.9712 53.5376 41.9579L53.5389 41.9235Z" fill="#7A7B75"/>
<path d="M74.114 53.2311C74.7098 53.3934 75.3124 53.5067 75.9162 53.57C76.5238 53.6309 77.1302 53.6331 77.7275 53.5766C77.8849 53.5569 78.046 53.5488 78.2019 53.5205L78.6711 53.4371L79.1299 53.3161C79.2833 53.2769 79.4281 53.2131 79.5759 53.1593C80.8344 52.6503 81.9607 51.8742 82.8904 50.8756C83.812 49.8896 84.5261 48.7067 84.9935 47.3919L86.0279 49.1202L83.8327 48.8131C82.6714 48.6525 81.5136 48.4781 80.3581 48.3491C79.205 48.2354 78.0348 48.1101 76.949 48.0774C75.9178 48.0221 74.9006 48.1408 73.9361 48.4289C73.0136 48.7637 72.1766 49.2857 71.469 49.9674C71.0103 50.3854 70.5034 50.7986 70.0068 51.2329C69.8196 51.4141 69.5941 51.5479 69.3452 51.6254C69.0962 51.7029 68.8294 51.7223 68.5622 51.6825C67.8766 51.5678 67.6246 50.8317 68.1148 49.9949C68.4533 49.4437 68.8664 48.9509 69.3427 48.5302C69.8958 48.021 70.4869 47.5579 71.1114 47.1444C71.7604 46.7206 72.4632 46.3854 73.2046 46.1461C73.5753 46.0319 73.9537 45.9403 74.3383 45.8719C74.7192 45.8073 75.1002 45.7639 75.4798 45.7336C76.2385 45.6771 76.9888 45.6785 77.7236 45.6969C78.5366 45.7177 79.3536 45.7333 80.1241 45.9101C80.6246 46.03 81.1251 46.1215 81.6256 46.2023C82.1262 46.2847 82.6266 46.3604 83.1269 46.4294C84.1274 46.5701 85.1271 46.6942 86.1225 46.842L86.1625 46.8479C86.2945 46.8675 86.4239 46.914 86.5435 46.9847C86.6631 47.0554 86.7704 47.149 86.8594 47.2601C86.9484 47.3712 87.0173 47.4976 87.0621 47.6322C87.107 47.7667 87.1269 47.9067 87.1208 48.0443C87.1151 48.1638 87.0901 48.2795 87.047 48.3867C86.9542 48.6152 86.863 48.8447 86.7638 49.069C86.6549 49.2875 86.5503 49.5087 86.4321 49.7202C85.4927 51.4439 84.1749 52.8855 82.5762 53.9382C81.1434 54.8511 79.507 55.4022 77.782 55.5529C76.0785 55.6964 74.3311 55.4606 72.6513 54.8605C71.3249 54.3874 70.1547 53.5647 69.4611 52.4866C69.299 52.2438 69.2665 52.0738 69.3556 51.9692C69.3816 51.9425 69.4115 51.9203 69.4445 51.9035C69.4865 51.8841 69.5311 51.8701 69.5772 51.8619C69.6343 51.8513 69.6926 51.8457 69.7514 51.8449C69.8199 51.8407 69.8895 51.8476 69.9579 51.8654C70.0566 51.8946 70.1554 51.9228 70.258 51.9435C70.3533 51.9746 70.4473 52.011 70.5398 52.0526C70.7223 52.1352 70.9144 52.1985 71.0998 52.274C71.2841 52.3527 71.4763 52.4117 71.6629 52.4822C71.8482 52.5562 72.0403 52.6098 72.227 52.6748C72.844 52.874 73.4667 53.1207 74.1043 53.2663L74.114 53.2311Z" fill="#7A7B75"/>
<path d="M80.9727 70.9494C81.1709 71.5877 81.4086 72.2154 81.6841 72.8281C81.9647 73.4363 82.2879 74.0251 82.6506 74.5892C83.0383 75.186 83.4917 75.7361 84.0001 76.2263C85.1124 77.2787 86.3797 78.1259 87.7395 78.7259C89.0855 79.3221 90.4967 79.6817 91.9127 79.7894L90.8005 80.9545L90.7501 80.4163C90.7306 80.237 90.7031 80.0574 90.6808 79.878C90.6265 79.5195 90.5656 79.1608 90.4863 78.8041C89.9628 76.5344 88.9363 74.3792 87.4937 72.5212C87.1387 72.0669 86.7555 71.6368 86.3472 71.2343C85.9315 70.8312 85.4963 70.4517 85.0436 70.0976C84.5859 69.741 84.112 69.4101 83.6239 69.1062C83.1355 68.7989 82.634 68.5184 82.1216 68.2661C81.5077 67.9527 80.8979 67.6008 80.2814 67.2882C79.782 67.0567 79.3706 66.6362 79.1355 66.117C79.0594 65.9761 79.0269 65.8172 79.0431 65.6644C79.0593 65.5117 79.1232 65.3734 79.2251 65.2708C79.4317 65.0697 79.8199 64.9661 80.3353 65.0575C81.0086 65.1888 81.6686 65.427 82.2918 65.7638C83.7092 66.5021 85.0636 67.3863 86.3335 68.4022C86.975 68.9106 87.5865 69.4615 88.1638 70.0513C88.7434 70.6478 89.2896 71.2793 89.7988 71.9419C90.3601 72.6697 90.9181 73.4717 91.245 74.3113C91.6731 75.3939 92.0396 76.497 92.3424 77.6143C92.6463 78.7309 92.8482 79.8658 92.9452 81.0028L92.947 81.0272C92.9569 81.164 92.9412 81.299 92.9007 81.4244C92.8602 81.5499 92.7957 81.6633 92.711 81.7582C92.6263 81.8532 92.5229 81.9277 92.4068 81.9777C92.2907 82.0277 92.1641 82.0521 92.0344 82.0495C92.0071 82.0489 91.978 82.047 91.9511 82.0442C91.706 82.0177 91.4607 81.993 91.2162 81.9597C90.9723 81.9135 90.728 81.8741 90.4861 81.8162C88.5211 81.3828 86.6221 80.5431 84.9028 79.3473C84.1473 78.8061 83.4367 78.1939 82.781 77.5191C82.1213 76.8439 81.5277 76.1012 81.0109 75.3043C80.005 73.7283 79.2568 72.0031 78.801 70.2089C78.621 69.5233 78.5268 68.8241 78.521 68.1298C78.5274 67.485 78.634 66.8555 78.8366 66.266C79.0023 65.7465 79.3475 65.8345 79.5698 66.4233C79.6062 66.5275 79.6448 66.6316 79.6899 66.736C79.7303 66.8402 79.7594 66.944 79.7941 67.0477C79.8517 67.2551 79.9483 67.462 80.0001 67.6689C80.0484 67.8762 80.1134 68.0832 80.1679 68.2901C80.2194 68.4972 80.286 68.7027 80.3444 68.908C80.5452 69.5801 80.6942 70.2819 80.9383 70.9534L80.9727 70.9494Z" fill="#7A7B75"/>
<path d="M56.5703 66.6493C56.2849 68.1215 56.1791 69.6431 56.2552 71.1789C56.2898 71.9807 56.4188 72.7843 56.6391 73.5715C56.9359 74.6094 57.3629 75.6132 57.9083 76.555C58.4313 77.4774 59.0894 78.3157 59.8557 79.0354L60.1398 79.2953C60.2362 79.379 60.3387 79.4532 60.4374 79.5331C60.6342 79.6914 60.8388 79.8382 61.0499 79.9727C61.1523 80.0443 61.258 80.1099 61.3667 80.1689L61.6874 80.3558C61.7076 80.3683 61.7284 80.3796 61.7497 80.3896C61.7661 80.3985 61.783 80.4051 61.7997 80.4129C61.833 80.4278 61.8656 80.44 61.8956 80.4502C61.9336 80.4643 61.9726 80.4735 62.0117 80.4776C61.9565 80.4757 61.9033 80.4898 61.8579 80.5185C61.7994 80.5486 61.7476 80.5902 61.705 80.6413C61.6672 80.6856 61.6374 80.737 61.6168 80.7934C61.5918 80.8748 61.6098 80.8389 61.6129 80.7092L61.6338 80.2832L61.7225 78.5748C61.809 77.176 61.8499 75.759 61.8876 74.377C61.9325 73.0192 61.9019 71.6522 61.796 70.283C61.74 69.6189 61.652 68.9551 61.5324 68.294C61.4127 67.6498 61.2548 67.0103 61.0596 66.3794C60.686 65.1421 60.1134 63.9631 59.3681 62.8964C58.9392 62.2623 58.4698 61.6576 57.9635 61.0871C57.8457 60.9663 57.7366 60.8366 57.6374 60.699C57.5471 60.5782 57.4645 60.4515 57.3903 60.32C57.258 60.0786 57.1597 59.8209 57.0988 59.5556C57.0166 59.1798 57.1136 58.8974 57.3996 58.7845C57.5768 58.7239 57.7697 58.7116 57.9613 58.7486C58.2287 58.8077 58.489 58.913 58.7313 59.06C59.4633 59.5139 60.1125 60.1134 60.6383 60.8211C61.7941 62.3787 62.6745 64.1278 63.2315 65.9733C63.7876 67.7917 64.0446 69.6184 64.1939 71.4164C64.276 72.408 64.3432 73.4367 64.2297 74.3625C64.1397 75.1013 64.0628 75.8357 63.9993 76.5658C63.9684 76.9317 63.9374 77.296 63.915 77.6628L63.863 78.7649L63.7711 80.9713C63.7667 81.0573 63.7643 81.1683 63.7471 81.3201C63.7263 81.5138 63.6779 81.7003 63.6034 81.8737C63.504 82.0966 63.3561 82.2883 63.1704 82.4348C62.9935 82.5711 62.7878 82.6641 62.5665 82.7079C62.2474 82.7663 61.9128 82.7453 61.5884 82.6468C61.4589 82.6091 61.331 82.5628 61.2056 82.5079C61.1441 82.4824 61.0859 82.4528 61.0265 82.4243C60.9722 82.3952 60.9007 82.3598 60.8628 82.3346C59.7974 81.7172 58.8244 80.9199 57.9871 79.9779C57.1639 79.0589 56.4732 78.0213 55.9408 76.904C55.0121 74.9515 54.4818 72.8493 54.3869 70.7438C54.3041 68.7046 54.4792 66.6887 54.9077 64.749C54.9844 64.3648 55.0828 63.995 55.1878 63.6353C55.2974 63.2844 55.4247 62.9414 55.5694 62.6078C55.7071 62.2855 55.8612 61.9724 56.0311 61.6698C56.2077 61.377 56.3849 61.0953 56.5706 60.8294C56.7439 60.5856 56.8892 60.4992 57.0066 60.5702C57.0381 60.5925 57.066 60.6205 57.0887 60.6527C57.1179 60.697 57.1418 60.7445 57.16 60.794C57.1844 60.8593 57.204 60.9259 57.2186 60.9934C57.2406 61.0761 57.2505 61.1607 57.2481 61.2442C57.2375 61.494 57.2267 61.7466 57.2158 62.0019C57.2065 62.2567 57.1698 62.5011 57.1424 62.7507C57.113 62.9982 57.0834 63.2466 57.0538 63.496C57.0223 63.7434 57.001 63.9934 56.958 64.2357C56.8381 65.037 56.6462 65.8311 56.5364 66.6337C56.5476 66.6388 56.558 66.6437 56.5703 66.6493Z" fill="#7A7B75"/>
<path d="M37.836 58.5483C37.7233 59.1135 37.6522 59.691 37.6235 60.2758C37.598 60.8637 37.6232 61.4579 37.6989 62.0512C37.7685 62.6832 37.9201 63.3105 38.1495 63.9151C38.6549 65.2133 39.4031 66.4118 40.3464 67.4343C40.8134 67.9364 41.3207 68.3952 41.8613 68.8044C42.1291 69.0075 42.4061 69.1956 42.6912 69.3677C42.8352 69.4487 42.9763 69.5374 43.1219 69.614L43.3423 69.7236C43.4116 69.7709 43.4846 69.8092 43.5557 69.8529L42.1726 70.7116C42.1858 70.5377 42.2058 70.3645 42.2142 70.1899L42.2332 69.665L42.2678 68.6143C42.2836 67.49 42.267 66.3624 42.2179 65.2316C42.1685 64.102 42.1211 62.9655 42.0215 61.8723C41.9374 60.8073 41.7567 59.7435 41.4821 58.6955C41.3446 58.1999 41.174 57.712 40.9718 57.2356C40.7787 56.7694 40.5465 56.3189 40.2782 55.89C39.9717 55.3765 39.6384 54.8796 39.28 54.4017C39.1184 54.2027 38.9879 53.9792 38.8941 53.7409C38.8506 53.6297 38.8164 53.5155 38.7919 53.3998C38.7649 53.2855 38.7465 53.1699 38.7368 53.0543C38.7068 52.7119 38.8132 52.4456 39.0689 52.3345C39.3208 52.2221 39.7352 52.2645 40.1926 52.566C40.7827 52.9665 41.2926 53.4924 41.6852 54.1055C42.1269 54.7737 42.5048 55.4824 42.8125 56.2198C42.9658 56.5805 43.1002 56.9482 43.2151 57.321C43.3339 57.6918 43.4306 58.0592 43.5209 58.4285C43.8438 59.8727 44.0592 61.3308 44.1651 62.7889C44.2599 63.5701 44.2876 64.352 44.2481 65.125C44.0699 67.0575 44.1206 69.0126 44.1429 70.969C44.1445 71.1192 44.1119 71.2642 44.048 71.3921C43.984 71.52 43.8904 71.6271 43.7749 71.7044C43.6594 71.7818 43.5254 71.8273 43.3839 71.8371C43.2424 71.8469 43.0974 71.8208 42.9611 71.7609L42.9067 71.7364L42.5746 71.5885C42.4664 71.5325 42.3563 71.4804 42.2503 71.4199C42.0407 71.2936 41.8278 71.1734 41.6247 71.0362C39.9912 69.96 38.6004 68.497 37.5774 66.779C36.6842 65.2554 36.1081 63.5729 35.8912 61.8542C35.6815 60.1637 35.793 58.4783 36.2192 56.8972C36.3766 56.29 36.6217 55.7196 36.9465 55.2049C37.1005 54.9605 37.2821 54.7381 37.4879 54.5418C37.6818 54.3505 37.8896 54.1752 38.1098 54.0171C38.3096 53.8778 38.4575 53.8589 38.5581 53.9545C38.5841 53.982 38.6064 54.0131 38.6241 54.0467C38.6451 54.0895 38.6614 54.1344 38.6727 54.1803C38.6871 54.2373 38.6972 54.2951 38.7029 54.353C38.7137 54.4205 38.7127 54.4884 38.6998 54.5532C38.6126 54.9221 38.559 55.3101 38.4867 55.6802C38.389 56.0364 38.2975 56.395 38.2159 56.7535C38.0816 57.3412 37.8973 57.925 37.8029 58.5344L37.836 58.5483Z" fill="#7A7B75"/>
</g>
<defs>
<clipPath id="clip0_28_113">
<rect width="88" height="79" fill="white" transform="translate(67.6663) rotate(58.9297)"/>
</clipPath>
</defs>
</svg>
