<svg width="485" height="120" viewBox="0 0 485 120" fill="none" xmlns="http://www.w3.org/2000/svg">
<path d="M266.552 12.2443C251.039 8.49489 238.685 5.91223 220.083 5.27728C204.447 4.74358 188.59 4.9114 173.033 5.64559C128.125 7.76502 86.4037 16.764 54.7597 27.9266C21.0335 39.8236 -0.280629 55.9411 4.1616 73.0001C9.50407 93.5163 52.518 108.217 105.699 114.621C175.031 122.97 257.926 118.339 324.232 108.479C384.555 99.508 457.806 82.6588 477.87 59.075C495.348 38.5302 447.095 19.2947 400.387 9.81455C361.678 1.95808 316.255 -1.40422 272.774 3.44089C240.703 7.01465 208.547 12.8271 182.604 20.4135C153.386 28.9578 133.735 39.9049 112.755 50.847" stroke="#7A7B75" stroke-width="1.2047" stroke-linecap="round"/>
</svg>
