<svg width="70" height="70" viewBox="0 0 70 70" fill="none" xmlns="http://www.w3.org/2000/svg">
<mask id="mask0_279_87" style="mask-type:luminance" maskUnits="userSpaceOnUse" x="0" y="6" width="70" height="58">
<path d="M69.9124 6.68539H0.305664V63.3146H69.9124V6.68539Z" fill="white"/>
</mask>
<g mask="url(#mask0_279_87)">
<path d="M69.4425 33.4826C69.2895 30.6245 69.1676 27.7152 69.0488 24.9023C68.9336 22.1628 68.8144 19.3299 68.6666 16.5449C68.4526 12.5004 66.3719 9.55389 62.6493 8.02388C61.3347 7.48398 59.7172 7.19849 57.7072 7.15031C52.3837 7.02373 46.9705 6.96522 41.7351 6.90834C39.8714 6.88801 38.0081 6.86673 36.1451 6.84453C36.0982 6.80563 36.0393 6.78425 35.9783 6.78422H31.6387C28.1123 6.78422 24.586 6.78526 21.0603 6.78697C20.415 6.78697 19.7676 6.78551 19.1226 6.78372C17.1833 6.77706 15.1777 6.77153 13.2052 6.84327C10.5122 6.9409 8.43857 7.46742 6.67976 8.50058C3.11785 10.5936 1.21783 13.5811 1.03247 17.3809C0.934816 19.3819 0.90192 21.4171 0.870302 23.3855L0.849652 24.618C0.821097 26.2701 0.791261 27.9217 0.760154 29.5732C0.659952 35.0147 0.556179 40.6415 0.51513 46.1776C0.498554 48.3814 0.609721 50.9883 1.55795 53.6169C2.96028 57.505 5.54694 60.0183 9.46584 61.3011C13.1119 62.4663 16.9141 63.0641 20.7401 63.0724C30.2505 63.1958 40.2257 63.254 51.9657 63.254H54.2462C56.4036 63.291 58.5575 63.0566 60.6571 62.5568C65.4706 61.3192 68.3229 58.3544 69.1353 53.7435C69.3937 52.1795 69.573 50.6029 69.6729 49.0204C70.0245 44.2186 69.7606 39.3523 69.5054 34.6457L69.4425 33.4826ZM24.9675 58.8849C20.848 58.8724 16.4461 58.7158 12.1695 57.6615C10.4488 57.2376 9.21801 56.7409 8.23459 56.0692L29.4582 36.4535L30.0508 37.0941C30.6413 37.7329 31.2509 38.3922 31.8667 39.0456C33.6489 40.9375 35.3975 41.0925 37.3684 39.534C38.1749 38.8968 38.9411 38.1757 39.6819 37.4808C39.9626 37.2168 40.2462 36.9511 40.5337 36.6866L61.3064 57.7583C60.5883 58.3513 59.7203 58.4756 58.806 58.6065L58.5433 58.6443C57.5614 58.7756 56.5711 58.8366 55.5801 58.8264L49.7697 58.8476C41.6399 58.8779 33.2346 58.9097 24.9675 58.8849ZM57.3997 15.0933C54.2914 17.9132 51.0777 20.8289 48.0134 23.8005C44.9555 26.7657 41.9573 29.8733 39.0574 32.8794C37.8572 34.1237 36.6181 35.4085 35.3944 36.6621L9.58288 11.2212C9.76763 11.1718 9.95097 11.1219 10.1328 11.0715C10.8365 10.8791 11.5013 10.6968 12.1802 10.5628C15.5563 9.89653 19.0323 9.98714 22.3941 10.0761C23.145 10.0955 23.8956 10.1148 24.646 10.1271C25.7877 10.145 26.9498 10.1833 28.0733 10.2204C29.049 10.2525 30.0579 10.2858 31.0516 10.3055C33.8458 10.361 36.64 10.4143 39.4345 10.4654C45.4746 10.5787 51.7203 10.6962 57.8618 10.8443C58.7254 10.8922 59.5839 11.0136 60.427 11.2074C60.7581 11.2737 61.1019 11.3418 61.4428 11.4013V11.4098C60.0994 12.6436 58.7274 13.8889 57.3989 15.0943L57.3997 15.0933ZM13.9273 46.0415C11.3386 48.5151 8.66474 51.0709 6.07906 53.6825C5.00515 51.1362 4.44853 49.0464 4.28281 46.9507C3.82387 41.1375 4.01457 35.3511 4.25068 29.9227C4.35856 27.4472 4.40162 24.9293 4.44346 22.4942C4.47201 20.8389 4.50158 19.1272 4.55106 17.4462C4.60202 15.6633 5.19533 14.4123 6.52222 13.3066L26.6903 33.2184C22.5846 37.767 18.1838 41.9732 13.9258 46.0435L13.9273 46.0415ZM64.771 53.2476C64.6766 53.7584 64.5503 54.2626 64.393 54.7573C64.3364 54.9492 64.2798 55.1415 64.2263 55.3338L64.1453 55.361L42.7666 34.4243C50.1571 26.7626 57.1657 20.2283 64.176 14.4629C64.2058 14.5985 64.2365 14.7304 64.2668 14.859C64.3915 15.326 64.4744 15.8031 64.5146 16.2849C64.7509 21.134 64.9436 25.9195 65.0852 29.5474C65.2181 32.9517 65.3314 36.3105 65.4218 39.5312C65.5355 43.6093 65.548 48.429 64.7694 53.2488L64.771 53.2476Z" fill="#EDE8D0"/>
</g>
</svg>
