<svg width="82" height="84" viewBox="0 0 82 84" fill="none" xmlns="http://www.w3.org/2000/svg">
<g clip-path="url(#clip0_177_661)">
<path d="M41.5815 1.21606C39.7861 5.82482 40.3851 10.0977 40.5592 14.9633C40.7853 21.2812 40.9773 27.5593 41.4362 33.8661" stroke="#7A7B75" stroke-width="1.90596" stroke-linecap="round"/>
<path d="M41.0651 45.1797C39.7505 51.5095 40.3418 57.6793 40.8893 64.079C41.4093 70.1567 42.1389 76.2116 42.8566 82.2681" stroke="#7A7B75" stroke-width="1.90596" stroke-linecap="round"/>
<path d="M1.13403 46.6646C5.16686 44.8702 8.96871 44.7973 13.3091 44.5028C19.876 44.0571 26.2024 43.2088 32.6559 41.9519" stroke="#7A7B75" stroke-width="1.90596" stroke-linecap="round"/>
<path d="M47.2629 40.096C58.4139 39.382 69.3895 37.5306 80.4472 35.9966" stroke="#7A7B75" stroke-width="1.90596" stroke-linecap="round"/>
<path d="M49.343 34.6508L52.9171 28.1667" stroke="#7A7B75" stroke-width="1.90596" stroke-linecap="round"/>
<path d="M32.9786 50.3503L28.6387 54.639" stroke="#7A7B75" stroke-width="1.90596" stroke-linecap="round"/>
<path d="M52.636 48.6655L56.9505 51.5757" stroke="#7A7B75" stroke-width="1.90596" stroke-linecap="round"/>
<path d="M31.5489 30.8471C26.874 29.4323 22.7142 27.3543 18.2737 25.3586" stroke="#7A7B75" stroke-width="1.90596" stroke-linecap="round"/>
</g>
<defs>
<clipPath id="clip0_177_661">
<rect width="82" height="84" fill="white"/>
</clipPath>
</defs>
</svg>
