<svg width="184" height="39" viewBox="0 0 184 39" fill="none" xmlns="http://www.w3.org/2000/svg">
<g clip-path="url(#clip0_154_194)">
<path d="M-20 34.1347C-9.8158 36.0384 -4.3781 37.7687 3.4467 31.382C6.9327 28.5367 10.0806 25.547 11.9281 21.3668C13.9534 16.7845 15.5016 4.30185 7.4111 10.4729C2.7482 14.0296 1.0384 19.2975 1.3564 25.0187C2.1447 39.1999 20.3992 38.9003 30.8372 36.8427C40.8179 34.8752 51.1668 29.0887 55.2245 19.3281C57.1431 14.7127 56.8465 6.66995 49.6262 10.4592C44.1536 13.3312 42.6562 20.9809 42.9982 26.5151C43.5613 35.625 56.9388 37.19 63.8535 36.8461C74.7995 36.3018 85.068 25.9496 90.554 17.1623C92.598 13.888 93.98 4.61775 87.743 9.69723C75.6664 19.5325 85.978 36.5207 100.144 35.1266C111.503 34.0088 121.282 21.3057 127.566 12.8961C128.797 11.2476 133.068 -2.96101 127.229 2.07428C122.478 6.17149 120.239 14.8679 122.623 20.6391C133.058 45.9043 167.217 17.5132 182.525 12.3881" stroke="#7A7B75" stroke-width="2" stroke-linecap="round"/>
</g>
<defs>
<clipPath id="clip0_154_194">
<rect width="205" height="39" fill="white" transform="translate(-21)"/>
</clipPath>
</defs>
</svg>
