<svg width="124" height="143" viewBox="0 0 124 143" fill="none" xmlns="http://www.w3.org/2000/svg">
<path d="M26.7328 55.832L27.575 54.6505L28.4626 53.5185C28.6077 53.3259 28.7627 53.1457 28.9192 52.9673L29.3856 52.4272C29.5426 52.2491 29.693 52.0616 29.8555 51.8908L30.3435 51.3783C31.6455 50.013 33.0303 48.7474 34.5106 47.6512C36.0735 46.4787 37.7245 45.4379 39.4348 44.6002C40.1049 44.2897 40.769 43.9623 41.4525 43.695C41.7925 43.5561 42.1302 43.41 42.4717 43.277L43.5025 42.9007C44.186 42.636 44.8868 42.4389 45.5788 42.2096C46.2741 41.9933 46.9776 41.8138 47.6761 41.6138L46.0397 39.7267C45.8413 40.9186 45.6512 42.1484 45.5225 43.401C45.3918 44.6527 45.3226 45.8957 45.2778 47.1126C45.2413 48.1029 45.8783 48.8935 46.7007 48.8784C47.152 48.8701 47.5653 48.621 47.8524 48.2342L47.8828 48.1928C49.5674 45.9025 51.3855 43.773 53.3431 41.8813C55.2995 39.9888 57.396 38.338 59.6055 36.9852L59.9744 36.7577L59.9819 36.753C60.81 36.2424 61.1766 35.0441 60.8008 34.0765C60.6296 33.6359 60.3317 33.318 59.9823 33.1519C57.4778 31.965 54.9743 30.6767 52.4198 29.4533C49.8639 28.2318 47.2588 27.0589 44.5239 26.1452C43.6455 25.8517 42.6929 26.4863 42.3962 27.5625C42.2059 28.2528 42.3316 28.957 42.678 29.4508L42.6893 29.4663C43.3047 30.3291 43.9243 31.1836 44.447 32.012C44.707 32.4265 44.9417 32.8321 45.1281 33.2327C45.3162 33.6344 45.4638 34.0329 45.5824 34.4642L46.9744 31.7528C44.6833 32.2602 42.3698 32.7605 40.0447 33.3569C37.7206 33.95 35.3816 34.6509 33.0642 35.5746C31.2058 36.3106 29.3799 37.3371 27.6767 38.5185C27.2717 38.8103 26.9062 39.0819 26.5941 39.3766C26.2826 39.6733 26.0133 39.9619 25.7827 40.2412C25.7259 40.3124 25.6707 40.3816 25.6169 40.4489C25.5579 40.5268 25.5005 40.6024 25.4447 40.6759C25.3237 40.8393 25.2188 40.9976 25.1293 41.1484C24.9501 41.4503 24.8329 41.721 24.7637 41.9546C24.5676 42.6336 24.971 42.7512 25.5353 42.7929C25.8183 42.8076 26.1351 42.8054 26.4364 42.7414C26.4743 42.733 26.5121 42.7235 26.5499 42.7126C26.6037 42.6926 26.659 42.672 26.7157 42.6509C26.8302 42.6062 26.9487 42.5561 27.0711 42.5004C27.3159 42.3891 27.5761 42.2558 27.8505 42.0992C29.2592 41.3494 30.7865 40.5249 32.2702 39.8006L33.1636 39.3743L34.0707 38.9849C34.3719 38.8513 34.6781 38.7326 34.9852 38.6166L35.9063 38.2674C37.1442 37.8323 38.3933 37.4333 39.6593 37.0939C42.1869 36.3996 44.7602 35.8749 47.3491 35.3541C48.0893 35.2051 48.6247 34.3683 48.5448 33.485C48.5359 33.3861 48.5196 33.2909 48.4967 33.1998L48.4826 33.1461C48.3153 32.4972 48.0889 31.8581 47.8248 31.2709C47.5614 30.6808 47.2645 30.1489 46.9663 29.6475C46.366 28.6478 45.7553 27.7583 45.16 26.8607L43.5071 29.8529L44.3811 30.1974C46.2447 30.9612 48.1359 31.9448 49.9904 32.6702C52.9195 33.816 55.7899 35.2528 58.7239 36.618L58.7308 33.4627C57.178 34.4061 55.6726 35.4741 54.2361 36.6617C52.8035 37.8558 51.4428 39.171 50.1687 40.5856C49.3979 41.4518 48.647 42.3412 47.9166 43.2535C47.1912 44.1711 46.4857 45.11 45.7999 46.0689L48.0906 47.0188C48.1168 45.8557 48.1666 44.7118 48.2698 43.5811C48.3708 42.4509 48.5302 41.311 48.7062 40.1428L48.713 40.0975C48.8391 39.2599 48.3821 38.4982 47.6922 38.3961C47.5338 38.3727 47.3724 38.3878 47.2231 38.4325L45.9789 38.8101L45.3572 39.0004L44.7387 39.2148C44.2328 39.3969 43.7243 39.5588 43.2213 39.758L41.7132 40.3549L40.2187 41.0189C39.7208 41.2407 39.2321 41.5027 38.7389 41.743C36.7775 42.7497 34.8623 43.9292 33.038 45.3059C31.2135 46.6812 29.4823 48.2549 27.8884 50.008C26.2934 51.7598 24.8375 53.6885 23.5328 55.7395L25.2003 56.2038C25.1517 55.7318 25.0994 55.26 25.0612 54.7871C24.8865 52.8135 24.7861 50.8984 24.7352 49.0321C24.6783 47.1668 24.6633 45.3474 24.581 43.6019C24.5596 43.2089 24.511 42.8692 24.4515 42.606C24.3911 42.345 24.3171 42.1691 24.2133 42.135C24.1106 42.1012 23.9716 42.2095 23.8102 42.5316C23.7305 42.6922 23.647 42.9069 23.572 43.174C23.5436 43.2757 23.513 43.3852 23.4803 43.5025C23.4533 43.6031 23.4273 43.7109 23.4025 43.8257C23.1225 45.1265 22.8799 46.4813 22.7094 47.8742C22.5386 49.2664 22.438 50.694 22.4151 52.1135C22.3937 53.6622 22.5021 55.2213 22.6657 56.7491C22.7786 57.8031 23.587 58.4963 24.4714 58.2974C24.8875 58.2038 25.2462 57.9295 25.4977 57.5554L25.5078 57.5404L26.0921 56.6683C26.2897 56.381 26.4748 56.0804 26.687 55.8104C26.7018 55.8173 26.7156 55.8239 26.7328 55.832Z" fill="#7A7B75"/>
<path d="M61.1106 66.2241C64.8567 65.3225 68.6012 64.5437 72.348 64.1123C74.3317 63.8951 76.3267 63.7491 78.2858 63.831C78.6554 63.8462 79.0216 63.8817 79.3895 63.9059L79.9407 63.9461C80.1251 63.9562 80.3078 63.9743 80.4886 64.0016C81.2127 64.1044 81.9465 64.167 82.6543 64.3296C83.0104 64.4017 83.3686 64.4663 83.7227 64.5437L84.7669 64.832L85.2887 64.9754L85.7938 65.1624L86.8039 65.5333L86.0954 63.1477C85.8503 63.6634 85.608 64.1592 85.3595 64.6081C85.1102 65.0591 84.8538 65.47 84.5545 65.8882C83.9589 66.7229 83.2449 67.5837 82.5375 68.4458C81.9445 69.1684 81.9229 70.2986 82.4893 70.9702C82.8327 71.3774 83.3134 71.5226 83.7708 71.4126L83.8142 71.4017C86.4181 70.7542 89.0207 70.1067 91.5512 69.7712C92.8171 69.6075 94.0648 69.5393 95.3289 69.5597C96.5919 69.5777 97.8761 69.6791 99.1747 69.7979C100.066 69.8795 100.888 69.0705 101.009 67.9907C101.057 67.5578 100.986 67.1471 100.826 66.8052L100.822 66.7982C100.598 66.3185 100.375 65.8369 100.143 65.3626C98.7037 62.3862 97.1424 59.5006 95.3982 56.7409C94.5208 55.3653 93.5956 54.0234 92.5954 52.7384C91.5931 51.4557 90.5206 50.2235 89.2987 49.1216C88.5788 48.4723 87.5222 48.6808 86.9387 49.5872C86.5603 50.175 86.4738 50.912 86.6561 51.5346L86.6593 51.5447C86.9521 52.535 87.1839 53.5043 87.306 54.4603C87.4305 55.4167 87.4425 56.3684 87.3508 57.3552L89.64 55.5441C87.0391 54.4875 84.4191 53.3974 81.7363 52.4219C79.0521 51.4511 76.2948 50.6092 73.4455 50.068C71.4086 49.691 69.2806 49.6246 67.2025 49.8146C66.2075 49.8852 65.3858 50.1479 64.7302 50.4234C64.6485 50.46 64.569 50.4957 64.4917 50.5303C64.4074 50.5691 64.297 50.6205 64.2078 50.6671C64.0216 50.7632 63.8541 50.8643 63.7069 50.9659C63.412 51.1696 63.1998 51.3729 63.055 51.5535C62.6419 52.0811 63.0415 52.2825 63.5861 52.6159C63.8617 52.7736 64.1524 52.9694 64.4231 53.0805C64.4576 53.094 64.4922 53.106 64.5273 53.1161L64.582 53.13C64.6126 53.1347 64.6435 53.1393 64.6749 53.1441C64.8003 53.1621 64.9315 53.1772 65.0685 53.1891C65.3424 53.2131 65.6394 53.2245 65.9587 53.2217C67.5772 53.2618 69.3377 53.3262 71.0173 53.4813C73.9976 53.7902 76.9531 54.547 79.8542 55.5645C82.7602 56.5665 85.6207 57.8101 88.5015 59.06C89.203 59.3644 90.011 58.911 90.3063 58.0474C90.3541 57.9075 90.3856 57.7653 90.4017 57.6241L90.4094 57.5505C90.5451 56.3113 90.5559 55.0248 90.4281 53.7869C90.3033 52.5467 90.054 51.3703 89.766 50.2613C89.7479 50.191 89.7297 50.1207 89.7111 50.0489L87.2711 52.2889C88.7735 53.7797 90.1466 55.6764 91.4905 57.4235C92.7788 59.0909 93.9648 60.9128 95.0585 62.8234C96.1551 64.732 97.1734 66.7215 98.1242 68.7509L99.5728 66.1132C98.1174 65.9892 96.6375 65.8871 95.1249 65.902C93.6131 65.9093 92.0785 66.0799 90.5867 66.3584C88.1295 66.8302 85.7466 67.4721 83.3647 68.1118L84.4909 70.7192C85.1998 69.8271 85.9179 68.9457 86.6297 67.9204C86.9848 67.4095 87.3286 66.8426 87.63 66.2755C87.933 65.7069 88.1946 65.1471 88.4443 64.6008L88.4755 64.5326C88.8137 63.7926 88.6048 62.8981 88.0089 62.5345C87.9437 62.4947 87.8699 62.4609 87.8016 62.4368L86.6001 62.0243C86.3993 61.9592 86.2005 61.8813 85.998 61.8278L85.389 61.6764C83.0906 61.088 80.7571 60.854 78.4346 60.808C76.1102 60.7613 73.7938 60.9354 71.4909 61.2016C66.8841 61.7452 62.331 62.7387 57.82 63.8307L58.7132 65.5034L58.9279 65.0816C60.9599 61.1341 62.2821 56.9745 62.5937 53.1774C62.6283 52.742 62.6008 52.4121 62.5367 52.1964C62.5202 52.1426 62.5015 52.096 62.4809 52.0564C62.4657 52.0059 62.4215 52.0287 62.4427 51.8564C62.4558 51.7308 62.4812 51.6392 62.4822 51.5843C62.4851 51.5538 62.4761 51.5411 62.4653 51.5302C62.4577 51.515 62.4404 51.5126 62.4149 51.5233C62.3667 51.5428 62.277 51.6164 62.1927 51.7849C62.1723 51.8256 62.1525 51.8748 62.1364 51.921C62.1289 51.9255 62.1208 51.9304 62.1123 51.9355C62.0962 51.9459 62.0799 51.958 62.0634 51.9716C61.9982 52.0254 61.9293 52.1065 61.8575 52.2171C61.7161 52.4358 61.5614 52.7673 61.4067 53.2142C60.5092 55.7506 59.4106 58.3454 58.1854 60.8176C57.6784 61.8618 57.1408 62.9023 56.5993 63.9455L56.5797 63.9833C56.0958 64.9156 56.3094 66.0992 57.0568 66.6269C57.3919 66.8634 57.7795 66.9274 58.1464 66.8427C59.1275 66.6152 60.1104 66.3794 61.0874 66.1717C61.0949 66.1885 61.1018 66.2044 61.1106 66.2241Z" fill="#7A7B75"/>
<path d="M68.4073 95.792C71.6826 96.9192 74.8987 98.1348 77.9507 99.7234C79.5613 100.575 81.1345 101.531 82.5743 102.685L83.2962 103.274C83.5333 103.475 83.7586 103.693 83.9904 103.901C84.2179 104.115 84.4569 104.314 84.675 104.54L85.3306 105.216L85.6585 105.553C85.7647 105.669 85.8649 105.793 85.9684 105.912L86.5849 106.632C86.7977 106.864 86.9744 107.135 87.1698 107.386L87.7435 108.15L88.1267 105.584C87.8794 105.764 87.5516 105.958 87.214 106.14C86.8738 106.324 86.515 106.501 86.149 106.676C85.4124 107.03 84.66 107.358 83.8478 107.766C83.089 108.147 82.6943 109.179 82.9663 110.071C83.1049 110.525 83.3901 110.856 83.737 111.02L83.7807 111.041C86.0639 112.111 88.2656 113.253 90.305 114.685C92.351 116.107 94.2851 117.81 96.2066 119.595C96.8959 120.235 97.92 120.049 98.4941 119.18C98.7579 118.781 98.8808 118.307 98.8696 117.849L98.8687 117.816C98.8471 116.968 98.8313 116.113 98.8212 115.253C98.7873 112.197 98.7996 109.074 98.63 105.912C98.448 102.754 98.1008 99.5283 97.195 96.3977C96.8968 95.3672 95.945 94.8729 95.0692 95.2937C94.6441 95.498 94.3149 95.8804 94.1229 96.3377L94.115 96.3567C93.6775 97.4044 93.2694 98.4626 92.8623 99.3837C92.4532 100.31 92.038 101.058 91.4889 101.788L94.0096 101.727C92.3712 99.4219 90.6907 97.1354 88.9151 94.9284C87.1324 92.7299 85.2516 90.6143 83.2506 88.6724C81.8325 87.2836 80.2714 86.0808 78.7154 84.992C77.9736 84.4627 77.3001 84.1426 76.718 83.9414C76.0829 83.7231 75.5607 83.6705 75.1435 83.7346C74.5359 83.8288 74.4068 84.2871 74.5931 84.8985C74.6875 85.2044 74.8618 85.5487 75.1113 85.9066C75.3439 86.2451 75.7257 86.6776 76.1892 87.1138C77.3609 88.2247 78.688 89.3388 79.9268 90.4217C81.0345 91.3813 82.1105 92.3894 83.1419 93.4615C83.6646 93.9875 84.1636 94.5472 84.6696 95.0971C85.163 95.6647 85.6616 96.2247 86.1398 96.8135C88.0736 99.1385 89.869 101.653 91.6176 104.227C92.084 104.914 92.9481 104.981 93.5476 104.378C93.5912 104.334 93.6322 104.288 93.6706 104.24L93.7205 104.176C94.3851 103.33 94.9889 102.33 95.4613 101.351C95.9379 100.372 96.3258 99.4422 96.7262 98.5487C96.8179 98.3449 96.9099 98.1404 97.0034 97.9326L94.1265 97.8943C94.6031 99.8326 94.8583 101.944 95.1449 103.967C95.4654 106.215 95.5998 108.558 95.6621 110.937C95.7279 113.316 95.7279 115.735 95.8064 118.185L98.1558 116.615C96.3124 114.929 94.4085 113.272 92.3258 111.887C91.1328 111.094 89.9018 110.368 88.655 109.712C87.4081 109.055 86.1479 108.464 84.8874 107.903L84.8277 110.816C85.5207 110.452 86.2909 110.097 87.0595 109.71C87.4461 109.516 87.8364 109.314 88.2343 109.088C88.6334 108.86 89.0355 108.619 89.4741 108.284L89.5181 108.25C90.1102 107.798 90.3134 106.874 89.9719 106.188C89.9296 106.103 89.8764 106.02 89.8225 105.95L88.9167 104.798C87.4409 103.003 85.7837 101.453 84.031 100.12C82.2773 98.7859 80.4295 97.6628 78.5429 96.6813C74.7647 94.7197 70.8408 93.3123 66.9505 91.9434L67.2306 93.8385L67.6817 93.3355C70.2407 90.4672 72.4128 87.4463 73.9414 84.3883C74.0792 84.1105 74.1678 83.8694 74.2013 83.6854C74.2039 83.6706 74.2137 83.6594 74.2252 83.6562L74.3936 83.6098C74.8985 83.4704 75.1228 83.1806 74.5903 82.767C74.5498 82.7355 74.5 82.7322 74.4562 82.7528L73.686 83.1224C73.4803 83.2212 73.2212 83.4285 72.9186 83.7475C71.2923 85.4798 69.5879 87.2955 67.892 89.1018C67.1224 89.9176 66.3592 90.7667 65.5891 91.6127L65.5725 91.631C64.8971 92.3728 64.8178 93.5981 65.3952 94.3678C65.5817 94.6164 65.8206 94.7892 66.0722 94.8813C66.8525 95.1634 67.6388 95.4378 68.4086 95.7317C68.4082 95.7511 68.4078 95.7693 68.4073 95.792Z" fill="#7A7B75"/>
</svg>
